<?xml version="1.0" encoding="UTF-8"?>
<svg version="1.1" xmlns="http://www.w3.org/2000/svg" width="350" height="350">
<path d="M0,0 L350,0 L350,350 L0,350 Z M171,13 L171,20 L178,20 L178,13 Z M152,27 L127,41 L110,51 L84,66 L58,81 L52,90 L38,115 L35,121 L35,229 L41,240 L55,265 L60,270 L78,280 L102,294 L128,309 L152,323 L197,323 L222,309 L239,299 L265,284 L291,269 L297,260 L312,234 L314,231 L314,119 L298,91 L292,82 L283,76 L265,66 L241,52 L215,37 L198,27 Z M36,92 L35,95 L33,95 L33,98 L39,100 L42,96 L42,94 Z M312,92 L308,94 L310,100 L313,101 L313,99 L317,98 L315,93 Z M38,250 L33,253 L35,257 L36,259 L42,257 L40,250 Z M310,250 L308,256 L312,259 L314,259 L315,255 L317,255 L317,253 L312,250 Z M171,330 L171,337 L178,337 L178,330 Z " fill="#000000" transform="translate(0,0)"/>
<path d="M0,0 L44,0 L61,10 L61,13 L43,23 L0,23 L-19,12 L-16,9 Z " fill="#000000" transform="translate(153,29)"/>
<path d="M0,0 L5,1 L21,10 L18,13 L-6,27 L-12,25 L-19,21 L-19,11 Z " fill="#000000" transform="translate(130,42)"/>
<path d="M0,0 L5,1 L22,11 L22,21 L12,27 L6,25 L-16,12 L-17,10 Z " fill="#000000" transform="translate(216,42)"/>
<path d="M0,0 L41,0 L41,23 L0,23 Z " fill="#000000" transform="translate(154,54)"/>
<path d="M0,0 L5,2 L29,16 L29,29 L21,34 L7,26 L0,22 Z " fill="#000000" transform="translate(197,55)"/>
<path d="M0,0 L5,2 L5,4 L0,6 Z " fill="#000000" transform="translate(240,55)"/>
<path d="M0,0 L1,0 L1,6 L-4,4 L-4,2 Z " fill="#000000" transform="translate(108,55)"/>
<path d="M0,0 L1,0 L1,22 L-12,30 L-20,34 L-27,30 L-27,16 L-18,10 Z " fill="#000000" transform="translate(151,55)"/>
<path d="M0,0 L8,4 L8,18 L-5,26 L-19,34 L-20,34 L-20,12 L-7,4 Z " fill="#000000" transform="translate(101,59)"/>
<path d="M0,0 L14,8 L21,12 L21,34 L16,32 L-7,19 L-8,18 L-8,5 Z " fill="#000000" transform="translate(248,59)"/>
<path d="M0,0 L10,5 L11,6 L11,18 L1,13 L0,12 Z " fill="#000000" transform="translate(111,65)"/>
<path d="M0,0 L1,0 L1,12 L-8,18 L-9,18 L-9,6 Z " fill="#000000" transform="translate(237,65)"/>
<path d="M0,0 L1,0 L1,23 L-15,51 L-21,60 L-36,69 L-40,71 L-40,47 L-26,23 L-19,11 Z " fill="#000000" transform="translate(78,72)"/>
<path d="M0,0 L14,8 L20,12 L35,38 L41,48 L41,71 L29,65 L20,59 L10,41 L0,24 Z " fill="#000000" transform="translate(271,72)"/>
<path d="M0,0 L6,2 L13,7 L13,16 L-6,27 L-11,26 L-27,17 L-24,14 Z " fill="#000000" transform="translate(109,79)"/>
<path d="M0,0 L41,0 L41,22 L0,22 Z " fill="#000000" transform="translate(154,79)"/>
<path d="M0,0 L6,2 L28,15 L29,17 L12,27 L7,26 L-10,16 L-10,6 Z " fill="#000000" transform="translate(238,79)"/>
<path d="M0,0 L5,2 L18,9 L18,11 L1,21 L0,21 Z " fill="#000000" transform="translate(197,80)"/>
<path d="M0,0 L1,0 L1,20 L-4,18 L-17,11 L-13,7 Z " fill="#000000" transform="translate(151,80)"/>
<path d="M0,0 L5,2 L5,4 L0,6 Z " fill="#000000" transform="translate(124,87)"/>
<path d="M0,0 L2,1 L2,6 L-3,4 L-3,2 Z " fill="#000000" transform="translate(224,87)"/>
<path d="M0,0 L15,8 L19,11 L19,19 L5,11 L0,8 Z " fill="#000000" transform="translate(133,92)"/>
<path d="M0,0 L5,3 L1,6 L0,6 Z " fill="#000000" transform="translate(219,92)"/>
<path d="M0,0 L2,0 L3,5 L-3,3 Z " fill="#000000" transform="translate(128,93)"/>
<path d="M0,0 L1,0 L1,8 L-18,19 L-19,19 L-19,11 Z " fill="#000000" transform="translate(216,92)"/>
<path d="M0,0 L14,7 L19,10 L18,15 L3,41 L0,46 L-6,44 L-20,36 L-18,30 L-4,6 Z " fill="#000000" transform="translate(80,97)"/>
<path d="M0,0 L7,4 L7,26 L2,24 L0,23 Z " fill="#000000" transform="translate(124,97)"/>
<path d="M0,0 L14,8 L18,11 L1,21 L0,21 Z " fill="#000000" transform="translate(228,97)"/>
<path d="M0,0 L2,0 L18,28 L21,33 L21,36 L4,46 L1,45 L-14,19 L-18,11 L-9,5 Z " fill="#000000" transform="translate(268,97)"/>
<path d="M0,0 L1,0 L1,21 L-13,14 L-17,10 Z " fill="#000000" transform="translate(121,97)"/>
<path d="M0,0 L2,0 L3,21 L-3,25 L-4,25 L-4,3 Z " fill="#000000" transform="translate(223,98)"/>
<path d="M0,0 L14,8 L18,11 L1,21 L0,21 Z " fill="#000000" transform="translate(133,102)"/>
<path d="M0,0 L1,0 L1,21 L-4,19 L-17,11 L-12,7 Z " fill="#000000" transform="translate(216,102)"/>
<path d="M0,0 L41,0 L41,8 L0,8 Z " fill="#000000" transform="translate(154,104)"/>
<path d="M0,0 L12,6 L20,11 L18,16 L2,44 L-1,47 L-20,36 L-14,25 Z " fill="#000000" transform="translate(101,109)"/>
<path d="M0,0 L3,3 L16,26 L21,34 L21,36 L2,47 L-1,43 L-17,15 L-19,11 Z " fill="#000000" transform="translate(247,109)"/>
<path d="M0,0 L41,0 L41,23 L0,22 Z " fill="#000000" transform="translate(154,114)"/>
<path d="M0,0 L5,2 L17,9 L18,11 L1,21 L0,21 Z " fill="#000000" transform="translate(197,115)"/>
<path d="M0,0 L1,0 L1,21 L-13,13 L-17,10 Z " fill="#000000" transform="translate(151,115)"/>
<path d="M0,0 L5,2 L7,3 L5,8 L-11,36 L-14,39 L-20,35 L-14,23 L-1,1 Z " fill="#000000" transform="translate(123,122)"/>
<path d="M0,0 L2,0 L18,28 L21,33 L19,37 L14,39 L-1,12 L-5,6 L-4,2 Z " fill="#000000" transform="translate(225,122)"/>
<path d="M0,0 L14,7 L19,10 L18,15 L4,39 L0,46 L-6,44 L-19,36 L-20,34 L-7,11 Z " fill="#000000" transform="translate(132,127)"/>
<path d="M0,0 L2,0 L18,28 L21,33 L21,36 L4,46 L1,45 L-14,19 L-18,11 L-9,5 Z " fill="#000000" transform="translate(216,127)"/>
<path d="M0,0 L14,8 L19,11 L19,36 L11,40 L0,33 Z " fill="#000000" transform="translate(59,134)"/>
<path d="M0,0 L14,8 L20,12 L20,35 L11,40 L0,33 Z " fill="#000000" transform="translate(292,134)"/>
<path d="M0,0 L2,0 L2,32 L-9,39 L-17,34 L-17,10 Z " fill="#000000" transform="translate(55,135)"/>
<path d="M0,0 L2,0 L2,32 L-9,39 L-17,34 L-17,10 Z " fill="#000000" transform="translate(288,135)"/>
<path d="M0,0 L43,0 L57,24 L63,34 L62,39 L46,67 L43,72 L1,72 L-5,63 L-19,38 L-20,35 L-5,9 Z " fill="#000000" transform="translate(153,139)"/>
<path d="M0,0 L10,5 L18,10 L14,13 L0,21 Z " fill="#000000" transform="translate(81,147)"/>
<path d="M0,0 L2,1 L1,20 L-4,18 L-16,11 L-12,7 Z " fill="#000000" transform="translate(267,147)"/>
<path d="M0,0 L4,1 L8,4 L-11,15 L-18,11 L-14,8 Z " fill="#000000" transform="translate(100,159)"/>
<path d="M0,0 L5,1 L20,10 L16,14 L13,15 L-2,6 L-5,3 Z " fill="#000000" transform="translate(247,159)"/>
<path d="M0,0 L1,0 L1,21 L-13,14 L-17,10 L-1,1 Z " fill="#000000" transform="translate(108,164)"/>
<path d="M0,0 L14,8 L18,11 L9,17 L2,21 L0,21 Z " fill="#000000" transform="translate(111,164)"/>
<path d="M0,0 L14,8 L18,10 L18,12 L2,21 L0,21 Z " fill="#000000" transform="translate(240,164)"/>
<path d="M0,0 L2,0 L2,20 L-10,14 L-16,10 L-12,7 Z " fill="#000000" transform="translate(236,165)"/>
<path d="M0,0 L6,2 L11,5 L11,7 L1,12 L-9,6 L-5,3 Z " fill="#000000" transform="translate(57,169)"/>
<path d="M0,0 L6,2 L11,5 L11,7 L1,12 L-9,6 L-5,3 Z " fill="#000000" transform="translate(290,169)"/>
<path d="M0,0 L5,2 L1,6 L0,6 Z " fill="#000000" transform="translate(38,172)"/>
<path d="M0,0 L2,1 L2,6 L-3,4 L-4,2 Z " fill="#000000" transform="translate(77,172)"/>
<path d="M0,0 L5,2 L1,6 L0,6 Z " fill="#000000" transform="translate(81,172)"/>
<path d="M0,0 L2,1 L2,6 L-3,4 L-4,2 Z " fill="#000000" transform="translate(267,172)"/>
<path d="M0,0 L5,2 L1,6 L0,6 Z " fill="#000000" transform="translate(271,172)"/>
<path d="M0,0 L2,0 L2,6 L-4,3 Z " fill="#000000" transform="translate(310,172)"/>
<path d="M0,0 L5,2 L8,4 L8,29 L-9,39 L-11,39 L-11,7 Z " fill="#000000" transform="translate(70,176)"/>
<path d="M0,0 L14,8 L19,11 L18,15 L4,40 L0,47 L-5,45 L-20,36 L-13,22 L-3,5 Z " fill="#000000" transform="translate(218,176)"/>
<path d="M0,0 L5,2 L7,3 L7,5 L-11,15 L-16,13 L-18,11 L-5,3 Z " fill="#000000" transform="translate(260,176)"/>
<path d="M0,0 L5,2 L9,5 L9,28 L-4,36 L-9,39 L-11,39 L-11,7 Z " fill="#000000" transform="translate(303,176)"/>
<path d="M0,0 L12,6 L12,39 L0,33 L-7,29 L-7,4 Z " fill="#000000" transform="translate(45,176)"/>
<path d="M0,0 L12,6 L20,11 L16,14 L12,15 L-5,5 L-5,3 Z " fill="#000000" transform="translate(88,176)"/>
<path d="M0,0 L3,0 L18,26 L22,33 L20,37 L4,46 L1,43 L-14,17 L-17,12 L-17,10 Z " fill="#000000" transform="translate(129,177)"/>
<path d="M0,0 L12,6 L12,39 L0,33 L-7,29 L-7,4 Z " fill="#000000" transform="translate(278,176)"/>
<path d="M0,0 L11,6 L18,10 L13,14 L0,21 Z " fill="#000000" transform="translate(81,182)"/>
<path d="M0,0 L2,1 L1,20 L-4,18 L-16,11 L-13,8 Z " fill="#000000" transform="translate(267,182)"/>
<path d="M0,0 L5,2 L7,3 L6,7 L-8,32 L-12,39 L-17,37 L-19,36 L-18,31 L-4,7 Z " fill="#000000" transform="translate(239,189)"/>
<path d="M0,0 L3,3 L18,29 L21,34 L21,36 L14,39 L1,17 L-6,5 L-6,3 Z " fill="#000000" transform="translate(109,189)"/>
<path d="M0,0 L5,2 L20,11 L14,23 L0,47 L-14,39 L-20,36 L-14,24 L-4,7 Z " fill="#000000" transform="translate(248,194)"/>
<path d="M0,0 L3,3 L18,29 L21,34 L21,36 L4,46 L1,46 L-14,20 L-19,11 Z " fill="#000000" transform="translate(100,194)"/>
<path d="M0,0 L14,8 L19,11 L18,15 L8,33 L0,47 L-5,45 L-20,36 L-18,31 L-3,5 Z " fill="#000000" transform="translate(270,206)"/>
<path d="M0,0 L10,5 L20,11 L34,36 L41,48 L41,70 L36,68 L22,60 L16,51 L1,25 L0,23 Z " fill="#000000" transform="translate(38,207)"/>
<path d="M0,0 L3,0 L18,26 L23,35 L4,46 L1,43 L-14,17 L-17,12 L-17,10 Z " fill="#000000" transform="translate(77,207)"/>
<path d="M0,0 L2,0 L2,22 L-13,49 L-20,60 L-38,70 L-39,70 L-39,47 L-26,24 L-18,11 L-3,2 Z " fill="#000000" transform="translate(310,207)"/>
<path d="M0,0 L41,0 L41,23 L0,23 Z " fill="#000000" transform="translate(154,213)"/>
<path d="M0,0 L1,0 L1,21 L-10,15 L-17,11 L-12,7 Z " fill="#000000" transform="translate(151,214)"/>
<path d="M0,0 L10,5 L18,10 L15,13 L1,21 L0,21 Z " fill="#000000" transform="translate(197,214)"/>
<path d="M0,0 L5,2 L17,9 L17,11 L1,20 L0,20 Z " fill="#000000" transform="translate(133,227)"/>
<path d="M0,0 L2,0 L2,20 L-3,18 L-16,11 L-16,9 Z " fill="#000000" transform="translate(215,227)"/>
<path d="M0,0 L5,2 L7,5 L6,25 L0,22 Z " fill="#000000" transform="translate(219,227)"/>
<path d="M0,0 L1,0 L1,22 L-3,25 L-5,25 L-5,3 Z " fill="#000000" transform="translate(129,227)"/>
<path d="M0,0 L2,0 L2,21 L-12,13 L-16,11 L-16,9 Z " fill="#000000" transform="translate(120,232)"/>
<path d="M0,0 L12,6 L18,10 L14,13 L2,20 L0,20 Z " fill="#000000" transform="translate(228,232)"/>
<path d="M0,0 L41,0 L41,8 L0,8 Z " fill="#000000" transform="translate(154,238)"/>
<path d="M0,0 L5,2 L20,11 L20,19 L9,13 L0,8 Z " fill="#000000" transform="translate(197,239)"/>
<path d="M0,0 L1,0 L1,8 L-16,18 L-18,19 L-18,11 L-9,5 Z " fill="#000000" transform="translate(151,239)"/>
<path d="M0,0 L14,8 L21,12 L21,21 L10,28 L-2,22 L-19,12 L-14,8 Z " fill="#000000" transform="translate(101,243)"/>
<path d="M0,0 L14,8 L19,11 L16,14 L-8,28 L-20,22 L-20,12 L-7,4 Z " fill="#000000" transform="translate(248,243)"/>
<path d="M0,0 L41,0 L41,23 L0,23 Z " fill="#000000" transform="translate(154,248)"/>
<path d="M0,0 L1,0 L1,21 L-10,15 L-17,11 L-12,7 Z " fill="#000000" transform="translate(151,249)"/>
<path d="M0,0 L11,6 L18,10 L14,14 L2,21 L0,21 Z " fill="#000000" transform="translate(197,249)"/>
<path d="M0,0 L5,3 L1,7 L0,7 Z " fill="#000000" transform="translate(219,251)"/>
<path d="M0,0 L5,2 L28,15 L28,29 L22,33 L17,32 L0,22 Z " fill="#000000" transform="translate(81,257)"/>
<path d="M0,0 L5,2 L1,6 L0,6 Z " fill="#000000" transform="translate(124,257)"/>
<path d="M0,0 L2,1 L1,5 L-4,3 Z " fill="#000000" transform="translate(224,257)"/>
<path d="M0,0 L1,0 L1,22 L-12,30 L-17,33 L-22,32 L-27,29 L-27,16 L-14,8 Z " fill="#000000" transform="translate(267,257)"/>
<path d="M0,0 L5,2 L21,11 L21,34 L10,28 L-7,18 L-7,4 Z " fill="#000000" transform="translate(131,261)"/>
<path d="M0,0 L5,2 L9,6 L9,17 L-1,24 L-19,34 L-20,34 L-20,12 L-7,4 Z " fill="#000000" transform="translate(217,261)"/>
<path d="M0,0 L2,0 L2,12 L-9,18 L-9,6 Z " fill="#000000" transform="translate(120,267)"/>
<path d="M0,0 L10,5 L10,18 L0,12 Z " fill="#000000" transform="translate(228,267)"/>
<path d="M0,0 L41,0 L41,23 L0,23 Z " fill="#000000" transform="translate(154,273)"/>
<path d="M0,0 L5,1 L27,14 L30,16 L17,24 L12,27 L6,25 L-9,16 L-10,15 L-10,6 Z " fill="#000000" transform="translate(121,281)"/>
<path d="M0,0 L5,1 L13,6 L13,16 L-6,27 L-12,25 L-26,17 L-26,15 L-3,2 Z " fill="#000000" transform="translate(225,281)"/>
<path d="M0,0 L2,0 L2,6 L-3,3 Z " fill="#000000" transform="translate(107,289)"/>
<path d="M0,0 L6,2 L3,5 L0,6 Z " fill="#000000" transform="translate(240,289)"/>
<path d="M0,0 L44,0 L61,10 L61,13 L43,23 L0,23 L-19,12 L-16,9 Z " fill="#000000" transform="translate(153,298)"/>
</svg>
