<?xml version="1.0" encoding="UTF-8"?>
<svg version="1.1" xmlns="http://www.w3.org/2000/svg" width="350" height="350">
<path d="M0,0 L46,0 L70,14 L98,30 L122,44 L139,54 L143,59 L159,87 L162,92 L162,204 L148,228 L140,241 L123,251 L97,266 L73,280 L45,296 L0,296 L-26,281 L-52,266 L-78,251 L-95,241 L-110,215 L-116,205 L-117,202 L-117,94 L-111,82 L-97,58 L-92,53 L-66,38 L-40,23 L-14,8 Z M1,2 L-18,13 L-13,17 L1,25 L44,25 L63,14 L59,10 L45,2 Z M-22,15 L-41,26 L-41,36 L-30,42 L-25,40 L-2,27 L-1,25 L-19,15 Z M64,15 L47,25 L51,29 L74,42 L79,40 L86,36 L86,26 L67,15 Z M2,27 L2,50 L43,50 L43,27 Z M45,28 L45,50 L65,62 L73,58 L74,56 L74,44 L50,30 Z M88,28 L88,34 L93,32 L93,30 Z M-44,28 L-48,30 L-48,32 L-43,34 L-43,28 Z M-1,28 L-26,42 L-28,44 L-28,58 L-20,62 L-1,51 L0,50 L0,28 Z M-51,32 L-70,43 L-71,44 L-71,66 L-59,60 L-43,50 L-43,36 Z M96,32 L88,37 L88,50 L105,60 L115,66 L117,65 L117,44 L97,32 Z M-41,38 L-41,50 L-31,56 L-30,56 L-30,44 L-40,38 Z M85,38 L76,44 L76,56 L85,51 L86,50 L86,38 Z M-74,45 L-93,56 L-108,82 L-114,92 L-114,116 L-100,108 L-94,104 L-80,80 L-73,68 L-73,45 Z M119,45 L119,69 L134,95 L140,105 L159,116 L160,116 L160,93 L145,67 L138,56 L121,46 Z M-43,52 L-69,67 L-70,69 L-52,79 L-48,78 L-30,68 L-30,59 L-39,53 Z M2,52 L2,74 L43,74 L43,52 Z M86,52 L76,58 L76,68 L95,79 L99,78 L115,69 L111,65 L88,52 Z M45,53 L45,74 L59,66 L63,64 L63,62 L47,53 Z M-1,53 L-17,62 L-18,64 L-2,73 L0,73 L0,53 Z M-28,60 L-28,66 L-23,64 L-23,62 Z M72,60 L69,62 L69,64 L74,66 L74,60 Z M-22,65 Z M-19,65 L-19,73 L-1,84 L0,84 L0,76 L-13,68 Z M67,65 L67,71 L72,69 L68,65 Z M-24,66 L-27,69 L-21,71 L-22,66 Z M64,65 L45,76 L45,84 L56,78 L65,73 L65,65 Z M-72,70 L-80,83 L-92,104 L-92,106 L-74,116 L-72,116 L-56,88 L-53,83 L-53,80 L-71,70 Z M-28,70 L-28,93 L-23,96 L-21,95 L-21,74 Z M73,70 Z M76,70 L76,91 L87,85 L94,81 L90,78 Z M116,70 L99,80 L98,82 L112,107 L118,116 L123,114 L137,106 L136,101 L122,77 L118,70 Z M-31,70 L-48,80 L-44,84 L-30,91 L-30,70 Z M71,71 L67,74 L67,96 L73,93 L74,91 L73,71 Z M-19,75 L-19,96 L-7,90 L-1,86 L-5,83 Z M64,75 L47,85 L51,89 L63,96 L65,96 L65,75 Z M2,77 L2,85 L43,85 L43,77 Z M-51,82 L-65,107 L-71,118 L-52,129 L-49,126 L-33,98 L-31,93 L-50,82 Z M95,82 L76,93 L82,104 L96,129 L106,124 L116,118 L114,113 L98,85 Z M2,87 L2,109 L43,110 L43,87 Z M45,88 L45,109 L59,101 L63,98 L54,92 L47,88 Z M-1,88 L-18,98 L-14,101 L0,109 L0,88 Z M-29,95 L-37,108 L-49,129 L-45,133 L-42,134 L-28,110 L-22,100 L-22,98 L-27,95 Z M73,95 L68,98 L69,102 L83,127 L87,134 L92,132 L94,128 L78,100 L75,95 Z M-20,100 L-28,113 L-40,134 L-36,138 L-22,146 L-20,146 L-4,118 L-1,113 L-1,110 L-19,100 Z M64,100 L47,110 L46,112 L62,140 L66,146 L71,144 L85,136 L84,131 L69,105 L66,100 Z M-93,107 L-93,140 L-81,147 L-74,143 L-74,118 L-92,107 Z M140,107 L140,140 L152,147 L160,142 L160,119 L151,113 Z M-97,108 L-114,118 L-114,142 L-106,147 L-95,140 L-95,108 Z M136,108 L119,118 L119,142 L127,147 L138,140 L138,108 Z M1,112 L-9,130 L-19,147 L-17,152 L-1,180 L2,184 L44,184 L59,158 L64,149 L63,145 L53,127 L44,112 Z M-71,120 L-71,141 L-57,133 L-53,130 L-70,120 Z M115,120 L99,130 L104,134 L114,140 L116,140 L117,120 Z M-52,132 L-70,142 L-67,145 L-63,147 L-44,136 L-49,132 Z M95,132 L90,135 L93,138 L108,147 L115,143 L110,139 L98,132 Z M-44,137 L-57,145 L-61,148 L-48,156 L-43,158 L-43,137 Z M-41,137 L-41,158 L-36,156 L-24,149 L-23,147 L-40,137 Z M88,137 L88,158 L93,156 L106,149 L106,147 L89,137 Z M84,138 L68,147 L71,150 L85,158 L86,158 L86,138 Z M116,140 Z M-95,142 L-104,147 L-100,151 L-93,154 L-84,149 L-84,147 L-93,142 Z M138,142 L129,147 L133,151 L140,154 L149,149 L149,147 L140,142 Z M-114,145 L-114,151 L-109,148 L-113,145 Z M-75,145 L-79,148 L-75,151 L-73,150 L-73,145 Z M-71,145 L-71,151 L-66,148 L-70,145 Z M115,145 L111,148 L115,151 L117,150 L117,145 Z M119,145 L119,151 L124,148 L120,145 Z M158,145 L154,148 L160,151 L160,145 Z M-82,149 L-93,156 L-93,188 L-88,186 L-74,178 L-74,153 L-80,149 Z M66,149 L51,175 L46,185 L64,196 L66,196 L80,171 L85,163 L84,159 L68,150 Z M108,149 L91,159 L90,161 L95,164 L101,162 L115,154 L115,152 L110,149 Z M151,149 L140,156 L140,188 L145,186 L159,178 L160,177 L160,154 L153,149 Z M-107,149 L-114,153 L-114,178 L-96,188 L-95,188 L-95,155 Z M-64,149 L-69,152 L-69,154 L-52,164 L-46,162 L-44,160 L-63,149 Z M-23,150 L-40,160 L-38,165 L-28,183 L-20,196 L-9,190 L-1,185 L-3,179 L-17,155 L-20,150 Z M126,149 L119,153 L119,178 L137,188 L138,188 L138,155 Z M-71,155 L-71,176 L-57,168 L-53,165 L-70,155 Z M115,155 L99,165 L102,168 L114,175 L116,175 L117,155 Z M87,162 L74,185 L68,195 L68,198 L73,201 L75,201 L89,176 L94,168 L94,165 L89,162 Z M-43,162 L-49,165 L-47,170 L-37,188 L-29,201 L-22,198 L-24,193 L-38,168 L-42,162 Z M96,167 L83,190 L76,202 L80,205 L95,214 L99,209 L112,186 L116,178 L98,167 Z M-52,167 L-71,178 L-63,192 L-53,210 L-51,213 L-47,212 L-31,203 L-33,198 L-47,173 L-51,167 Z M116,175 Z M118,179 L103,205 L98,213 L99,216 L116,226 L118,226 L128,208 L137,193 L136,189 L120,180 Z M-114,180 L-114,203 L-100,228 L-93,239 L-84,245 L-75,250 L-73,250 L-73,228 L-87,203 L-94,191 L-113,180 Z M-75,180 L-92,190 L-90,195 L-76,220 L-72,226 L-61,220 L-52,215 L-60,201 L-70,183 L-72,180 Z M158,180 L140,191 L127,213 L119,227 L119,250 L133,243 L139,239 L155,211 L160,202 L160,180 Z M2,186 L2,209 L43,209 L43,186 Z M-1,187 L-18,197 L-13,201 L-1,208 L0,208 L0,187 Z M45,187 L45,208 L57,202 L63,198 L60,195 L46,187 Z M-19,200 L-19,220 L-5,213 L-2,211 L-2,209 L-17,200 Z M63,200 L47,209 L47,211 L63,220 L65,220 L65,200 Z M67,200 L67,222 L73,225 L74,204 L69,200 Z M-23,200 L-28,203 L-28,225 L-23,223 L-22,222 L-22,200 Z M-32,205 L-48,214 L-48,216 L-31,226 L-30,226 L-30,205 Z M76,205 L76,225 L81,223 L91,217 L94,215 L79,206 Z M2,211 L2,219 L43,219 L43,211 Z M45,212 L45,220 L64,231 L65,231 L65,223 L47,212 Z M-1,212 L-18,222 L-19,223 L-19,231 L-5,223 L0,220 L0,212 Z M-51,216 L-70,227 L-65,231 L-42,244 L-31,238 L-30,237 L-30,228 L-50,216 Z M96,216 L77,227 L76,228 L76,238 L88,244 L114,229 L114,226 L97,216 Z M2,221 L2,244 L43,244 L43,221 Z M-1,222 L-18,232 L-15,235 L-1,243 L0,243 L0,222 Z M45,222 L45,243 L50,241 L63,233 L58,229 L46,222 Z M-22,224 Z M67,224 L67,231 L72,228 L68,224 Z M73,225 Z M-23,225 L-27,228 L-22,230 L-22,225 Z M-71,230 L-71,252 L-54,262 L-49,263 L-43,259 L-43,245 L-61,235 L-69,230 Z M-28,230 L-28,236 L-23,233 L-26,230 Z M-22,230 Z M72,230 L68,233 L73,235 L74,230 Z M115,230 L92,243 L88,246 L88,259 L94,263 L100,262 L116,252 L116,230 Z M-21,234 L-28,238 L-28,252 L-11,262 L0,268 L0,245 L-18,235 Z M65,234 L46,245 L45,246 L45,268 L57,262 L73,252 L74,250 L74,239 L67,234 Z M73,235 Z M-32,240 L-41,246 L-41,258 L-30,252 L-30,240 Z M76,240 L76,252 L86,258 L86,245 Z M2,246 L2,269 L43,269 L43,246 Z M-31,254 L-41,260 L-41,269 L-32,275 L-21,281 L-16,279 L-2,271 L-1,269 L-12,263 L-28,254 Z M73,254 L47,269 L47,271 L65,281 L70,279 L86,270 L86,260 L76,254 Z M-45,262 L-48,265 L-43,268 L-43,262 Z M88,262 L88,268 L94,265 L90,262 Z M1,271 L-18,282 L-13,286 L1,294 L44,294 L63,283 L59,279 L45,271 Z " fill="#FEFEFE" transform="translate(152,27)"/>
<path d="M0,0 L7,0 L7,7 L0,7 Z " fill="#FEFEFE" transform="translate(171,330)"/>
<path d="M0,0 L7,0 L7,7 L0,7 Z " fill="#FEFEFE" transform="translate(171,13)"/>
<path d="M0,0 L3,1 L5,6 L1,7 L1,9 L-2,8 L-4,2 Z " fill="#FEFEFE" transform="translate(312,92)"/>
<path d="M0,0 L2,0 L4,7 L-2,9 L-5,5 L-5,3 Z " fill="#FEFEFE" transform="translate(38,250)"/>
<path d="M0,0 L5,2 L7,3 L7,5 L5,5 L4,9 L-1,7 L-1,3 Z " fill="#FEFEFE" transform="translate(310,250)"/>
<path d="M0,0 L6,2 L4,7 L0,7 L-3,6 L-3,3 L-1,3 Z " fill="#FEFEFE" transform="translate(36,92)"/>
</svg>
