<?xml version="1.0" encoding="UTF-8"?>
<svg version="1.1" xmlns="http://www.w3.org/2000/svg" width="350" height="350">
<path d="M0 0 C1.53717682 0.00410889 1.53717682 0.00410889 3.10540771 0.00830078 C20.12036191 0.15454304 31.13164048 2.74339731 44.79003906 13.3046875 C49.53716547 16.77141433 54.68273263 19.53369529 59.81887817 22.37225342 C62.79708256 24.02573228 65.75128649 25.7208651 68.70703125 27.4140625 C69.28571457 27.74467682 69.86439789 28.07529114 70.46061707 28.41592407 C78.38951067 32.94820949 86.27570845 37.55344001 94.15234375 42.17578125 C97.67208602 44.24065551 101.20437855 46.27975228 104.75390625 48.29296875 C105.53999268 48.7430127 106.3260791 49.19305664 107.13598633 49.65673828 C108.57001246 50.47703063 110.00831053 51.28992648 111.4519043 52.09326172 C117.80738023 55.75215468 120.8580432 60.52830664 124.41015625 66.8125 C124.75251816 67.41505615 125.09488007 68.0176123 125.44761658 68.63842773 C126.53170034 70.54831738 127.60977647 72.46151552 128.6875 74.375 C129.77010271 76.28771881 130.85392949 78.19973897 131.93809509 80.11157227 C132.92046024 81.8453777 133.89988829 83.58084631 134.87915039 85.31640625 C136.47878739 88.28314042 136.47878739 88.28314042 138.19894409 90.41191101 C140.32268608 94.82466682 140.13301553 99.00137955 140.18774414 103.84301758 C140.21067032 104.89759659 140.2335965 105.9521756 140.25721741 107.03871155 C140.3265754 110.53228746 140.37136353 114.02548786 140.41015625 117.51953125 C140.42487913 118.72063726 140.43960201 119.92174328 140.45477104 121.15924644 C140.52911026 127.53458752 140.58212181 133.90974652 140.62036133 140.28540039 C140.66438674 146.81012722 140.78800041 153.33073339 140.93027592 159.85394764 C141.02473378 164.91876018 141.05530509 169.98264131 141.07009697 175.04825401 C141.08817723 177.44859404 141.1296617 179.84889583 141.19691658 182.24836159 C141.67585761 200.41967882 137.45860952 211.97418531 127.22106743 226.95772362 C125.13815104 230.11234258 123.48272866 233.36154751 121.8125 236.75 C117.27156859 243.9548181 110.64046043 247.11720703 103.29052734 250.95410156 C98.13474069 253.70246924 93.11259924 256.68843594 88.0625 259.625 C85.8090201 260.92391704 83.55511132 262.22209028 81.30078125 263.51953125 C76.08168302 266.5293041 70.87271028 269.55556026 65.67724609 272.60595703 C63.71242344 273.75142078 61.73990727 274.8837806 59.76025391 276.00341797 C54.44416012 279.02781064 49.41954912 282.19708091 44.48046875 285.80859375 C24.77049379 299.58702143 3.65590273 301.5196852 -19.92352295 297.87011719 C-29.67787913 295.90006024 -37.58677431 290.36006318 -45.43115234 284.49169922 C-50.49131715 280.85331567 -55.94248072 277.91501747 -61.375 274.875 C-63.53176151 273.63465866 -65.68671371 272.39116588 -67.83984375 271.14453125 C-73.41927523 267.92546705 -79.00006452 264.70877908 -84.5847168 261.4987793 C-86.8060463 260.21593037 -89.02245222 258.92451499 -91.23364258 257.62426758 C-95.83785565 254.92420313 -100.3800553 252.30013348 -105.2578125 250.125 C-118.8324927 243.8086488 -124.18904881 232.31324062 -130.75146484 219.46484375 C-132.74423747 215.67228279 -134.93852443 212.03280727 -137.2043457 208.3984375 C-139.05074948 205.20698922 -139.50371358 202.6089859 -139.53562927 198.99488831 C-139.5456749 198.09937759 -139.55572052 197.20386688 -139.56607056 196.28121948 C-139.57190155 195.30097809 -139.57773254 194.32073669 -139.58374023 193.31079102 C-139.59352402 192.27624283 -139.6033078 191.24169464 -139.61338806 190.17579651 C-139.64335879 186.74351283 -139.66473781 183.31126836 -139.68359375 179.87890625 C-139.69016558 178.70511854 -139.6967374 177.53133083 -139.70350838 176.3219738 C-139.73611676 170.1030892 -139.76055844 163.88422177 -139.7800293 157.6652832 C-139.79780766 152.52928537 -139.83257133 147.39384015 -139.88256836 142.25805664 C-139.94293737 136.0494168 -139.97352913 129.84128745 -139.98320198 123.63236809 C-139.99173311 121.2725932 -140.01049278 118.91283107 -140.0399456 116.55322456 C-140.31418049 93.3231071 -140.31418049 93.3231071 -133.375 83.375 C-132.75230225 82.22459229 -132.12960449 81.07418457 -131.48803711 79.88891602 C-129.77099587 76.90028611 -128.04700303 73.91603446 -126.3125 70.9375 C-125.71373047 69.88884766 -125.11496094 68.84019531 -124.49804688 67.75976562 C-118.67674821 57.74305127 -112.70839304 53.11946733 -102.6875 47.5 C-101.52490346 46.84005018 -100.36280293 46.17922589 -99.20117188 45.51757812 C-96.79047653 44.14537614 -94.37770308 42.77693918 -91.96337891 41.41113281 C-86.41373863 38.26750096 -80.89616806 35.06827415 -75.375 31.875 C-73.2241022 30.63386524 -71.0730598 29.39298101 -68.921875 28.15234375 C-65.01214235 25.89677403 -61.10271394 23.64067896 -57.19372559 21.38381958 C-55.45863272 20.38208606 -53.72346743 19.38047811 -51.98828125 18.37890625 C-49.83449332 17.13566281 -47.68083529 15.89219428 -45.52734375 14.6484375 C-43.51211672 13.48530387 -41.49002644 12.33398465 -39.46142578 11.19433594 C-36.32136858 9.39860767 -36.32136858 9.39860767 -33.28466797 7.20410156 C-22.67347324 0.12997174 -12.52040937 -0.1351078 0 0 Z M-40.375 14.375 C-27.04807806 25.27745377 -17.16307344 27.8287118 -0.1875 27.5625 C0.76500641 27.56024414 1.71751282 27.55798828 2.69888306 27.55566406 C17.55771275 27.47042967 29.25588896 25.71971551 40.625 15.375 C32.60276783 6.82459454 23.87578303 2.74347647 12.30078125 2.20703125 C9.4691132 2.14496279 6.64588648 2.13517043 3.8137207 2.16723633 C0.9542931 2.18738169 -1.89017959 2.10638678 -4.74804688 2.01757812 C-19.10987751 1.86748684 -28.75922674 6.0945586 -40.375 14.375 Z M-54.0625 21.25 C-54.95517578 21.69085938 -55.84785156 22.13171875 -56.76757812 22.5859375 C-59.35277065 24.00789213 -61.35876428 25.21503149 -63.375 27.375 C-64.14452407 30.84012354 -63.95344305 33.89053844 -63.375 37.375 C-61.65928776 38.43868149 -59.92676399 39.47528172 -58.1875 40.5 C-57.22457031 41.08007812 -56.26164062 41.66015625 -55.26953125 42.2578125 C-52.48618299 43.67918003 -52.48618299 43.67918003 -50.03686523 42.63037109 C-45.09316287 40.29885522 -40.38028853 37.56480124 -35.625 34.875 C-34.55894531 34.28074219 -33.49289063 33.68648437 -32.39453125 33.07421875 C-31.38261719 32.50316406 -30.37070313 31.93210937 -29.328125 31.34375 C-28.40161133 30.82232422 -27.47509766 30.30089844 -26.52050781 29.76367188 C-24.25262821 28.55348245 -24.25262821 28.55348245 -23.375 26.375 C-26.30669446 24.69796194 -29.24624524 23.03520482 -32.1875 21.375 C-33.02087891 20.89804687 -33.85425781 20.42109375 -34.71289062 19.9296875 C-35.51533203 19.47851562 -36.31777344 19.02734375 -37.14453125 18.5625 C-38.25211792 17.93408203 -38.25211792 17.93408203 -39.38208008 17.29296875 C-44.72737539 14.83084571 -49.40824167 18.71688501 -54.0625 21.25 Z M37.61328125 18.5625 C36.85595703 19.01367188 36.09863281 19.46484375 35.31835938 19.9296875 C34.53267578 20.40664063 33.74699219 20.88359375 32.9375 21.375 C31.74157227 22.09042969 31.74157227 22.09042969 30.52148438 22.8203125 C28.55240169 23.99940393 26.58717452 25.18446003 24.625 26.375 C29.09647143 31.17094527 34.4151666 34.018956 40.0625 37.25 C41.09955078 37.86875 42.13660156 38.4875 43.20507812 39.125 C44.20861328 39.69992188 45.21214844 40.27484375 46.24609375 40.8671875 C47.1580249 41.39683105 48.06995605 41.92647461 49.00952148 42.47216797 C51.62579577 43.65530807 51.62579577 43.65530807 54.33496094 42.59863281 C55.09067383 42.19483398 55.84638672 41.79103516 56.625 41.375 C57.29144531 41.02179688 57.95789063 40.66859375 58.64453125 40.3046875 C59.23621094 39.95664063 59.82789063 39.60859375 60.4375 39.25 C61.489375 38.63125 62.54125 38.0125 63.625 37.375 C64.20344305 33.89053844 64.39452407 30.84012354 63.625 27.375 C60.95707605 24.51688593 57.79129597 22.96804798 54.3125 21.25 C53.43142578 20.77046875 52.55035156 20.2909375 51.64257812 19.796875 C44.71038391 16.04554869 44.71038391 16.04554869 37.61328125 18.5625 Z M-20.375 28.375 C-20.375 35.965 -20.375 43.555 -20.375 51.375 C-6.845 51.375 6.685 51.375 20.625 51.375 C20.625 43.785 20.625 36.195 20.625 28.375 C7.095 28.375 -6.435 28.375 -20.375 28.375 Z M22.625 29.375 C21.36783255 36.62015275 20.26582933 44.27475507 22.625 51.375 C25.33320112 54.74799383 28.40557356 56.83840683 32.125 59 C33.45289551 59.77972168 33.45289551 59.77972168 34.80761719 60.57519531 C39.70756358 63.05326942 39.70756358 63.05326942 45.03125 62.81542969 C48.0083279 61.39733053 50.12543135 60.3741373 51.625 57.375 C52.46204808 53.17408758 52.65900069 49.55201879 51.625 45.375 C48.25090098 41.86217707 44.26786168 39.90398806 39.9375 37.75 C38.83470703 37.15316406 37.73191406 36.55632813 36.59570312 35.94140625 C32.02270894 33.49326556 27.469275 31.23627086 22.625 29.375 Z M65.625 29.375 C65.625 31.355 65.625 33.335 65.625 35.375 C67.275 34.715 68.925 34.055 70.625 33.375 C70.625 32.715 70.625 32.055 70.625 31.375 C68.15 30.385 68.15 30.385 65.625 29.375 Z M-70.375 31.375 C-70.375 32.035 -70.375 32.695 -70.375 33.375 C-67.9 34.365 -67.9 34.365 -65.375 35.375 C-65.375 33.395 -65.375 31.415 -65.375 29.375 C-67.21546388 29.375 -68.77129594 30.54728177 -70.375 31.375 Z M-34.02172852 35.24658203 C-35.79937385 36.24264506 -37.58019936 37.23283888 -39.36132812 38.22265625 C-40.47830078 38.84785156 -41.59527344 39.47304687 -42.74609375 40.1171875 C-43.77661865 40.6932373 -44.80714355 41.26928711 -45.86889648 41.86279297 C-48.43366746 43.2735966 -48.43366746 43.2735966 -50.375 45.375 C-50.61877883 48.73244112 -50.61877883 48.73244112 -50.5 52.5 C-50.48195313 53.78132813 -50.46390625 55.06265625 -50.4453125 56.3828125 C-50.42210938 57.37023437 -50.39890625 58.35765625 -50.375 59.375 C-47.82573095 61.29950484 -45.49917354 62.63628229 -42.375 63.375 C-38.6410088 62.32028092 -35.65233794 60.31996779 -32.4375 58.1875 C-31.57576172 57.65318359 -30.71402344 57.11886719 -29.82617188 56.56835938 C-25.89418001 54.24321281 -25.89418001 54.24321281 -22.375 51.375 C-22.28799658 49.74027118 -22.26798937 48.10185945 -22.27734375 46.46484375 C-22.28217773 44.98081055 -22.28217773 44.98081055 -22.28710938 43.46679688 C-22.29548828 42.42587891 -22.30386719 41.38496094 -22.3125 40.3125 C-22.31701172 39.26771484 -22.32152344 38.22292969 -22.32617188 37.14648438 C-22.33800087 34.5559334 -22.35448311 31.96549441 -22.375 29.375 C-26.05859439 29.375 -30.84847254 33.46668704 -34.02172852 35.24658203 Z M-80.78320312 36.88476562 C-81.61787109 37.43841797 -82.45253906 37.99207031 -83.3125 38.5625 C-84.17423828 39.09681641 -85.03597656 39.63113281 -85.92382812 40.18164062 C-89.85581999 42.50678719 -89.85581999 42.50678719 -93.375 45.375 C-93.46200342 47.00972882 -93.48201063 48.64814055 -93.47265625 50.28515625 C-93.46943359 51.27451172 -93.46621094 52.26386719 -93.46289062 53.28320312 C-93.45451172 54.32412109 -93.44613281 55.36503906 -93.4375 56.4375 C-93.43298828 57.48228516 -93.42847656 58.52707031 -93.42382812 59.60351562 C-93.41199913 62.1940666 -93.39551689 64.78450559 -93.375 67.375 C-89.97520769 65.79100586 -86.63145312 64.1193622 -83.31054688 62.37597656 C-81.96133686 61.67822668 -80.60232471 60.99924695 -79.23632812 60.33496094 C-71.6946632 56.71950724 -71.6946632 56.71950724 -65.375 51.375 C-64.04274009 46.44563833 -64.34431714 42.34231879 -65.375 37.375 C-71.31253408 32.89261197 -74.51695933 33.06054981 -80.78320312 36.88476562 Z M67.4375 36.4375 C64.9730639 39.07189721 64.53318205 40.99876449 64.0625 44.5625 C64.25738061 48.0783052 64.56055088 50.35469233 67.16748047 52.85351562 C71.33368592 55.84615698 75.880227 58.09407852 80.49169922 60.31445312 C83.30425375 61.71268348 85.92129154 63.3665252 88.5625 65.0625 C90.71364489 66.49328733 90.71364489 66.49328733 92.625 67.375 C93.615 66.88 93.615 66.88 94.625 66.375 C95.88391789 59.48387716 97.03671057 52.10056261 94.625 45.375 C89.43972659 39.58887474 81.76157802 36.18762505 74.625 33.375 C71.96377142 33.375 69.59225291 35.04324812 67.4375 36.4375 Z M-63.375 39.375 C-63.97931694 43.524643 -64.26082138 47.25514434 -63.375 51.375 C-60.67901695 53.99889794 -56.36272703 57.375 -52.375 57.375 C-51.77068306 53.225357 -51.48917862 49.49485566 -52.375 45.375 C-55.07098305 42.75110206 -59.38727297 39.375 -63.375 39.375 Z M55.59375 43.2421875 C52.94906141 46.1072668 53.02613451 47.90434935 53.0625 51.75 C53.20649881 53.62884156 53.38011632 55.50662819 53.625 57.375 C55.10530272 56.56457164 56.58421142 55.75159652 58.0625 54.9375 C59.29806641 54.25880859 59.29806641 54.25880859 60.55859375 53.56640625 C62.54808798 52.53837603 62.54808798 52.53837603 63.625 51.375 C63.69744053 49.35535801 63.70877188 47.33332876 63.6875 45.3125 C63.67847656 44.20777344 63.66945312 43.10304687 63.66015625 41.96484375 C63.64855469 41.11019531 63.63695312 40.25554687 63.625 39.375 C60.75118432 39.375 57.89408062 41.73532535 55.59375 43.2421875 Z M-115.375 57.375 C-120.85193853 64.39692743 -124.8409105 72.38388738 -128.78125 80.33886719 C-130.27658263 83.1875125 -131.95650741 85.74218402 -133.76953125 88.39453125 C-137.27367155 94.11863558 -137.06025295 99.45286719 -136.75 106 C-136.72292969 107.09957031 -136.69585937 108.19914062 -136.66796875 109.33203125 C-136.59797443 112.01514688 -136.4998627 114.69397367 -136.375 117.375 C-134.16507241 116.1277532 -131.95706337 114.87729753 -129.75 113.625 C-129.13253906 113.27695313 -128.51507813 112.92890625 -127.87890625 112.5703125 C-126.63146955 111.86124322 -125.39035104 111.140953 -124.15551758 110.41015625 C-122.58287393 109.49585362 -120.96754804 108.65583745 -119.34765625 107.828125 C-114.72869271 104.0164179 -112.31457787 99.06576755 -109.4375 93.875 C-108.26171875 91.80208333 -107.0859375 89.72916667 -105.91015625 87.65625 C-105.04716919 86.09535645 -105.04716919 86.09535645 -104.16674805 84.50292969 C-102.9703803 82.41438035 -101.71003296 80.36123399 -100.38989258 78.34863281 C-95.67684789 71.04493466 -94.429286 65.75905323 -94.9375 57.125 C-94.96908203 56.08214844 -95.00066406 55.03929687 -95.03320312 53.96484375 C-95.1145409 51.43175315 -95.22869082 48.90502337 -95.375 46.375 C-101.95972528 46.375 -110.77170848 53.25449055 -115.375 57.375 Z M96.625 46.375 C94.07110629 65.58551949 99.06325494 77.6775489 109.76196289 93.52294922 C111.51225267 96.20239951 112.99964343 98.92815587 114.50390625 101.75 C117.72452062 107.17676784 121.93274213 109.64969388 127.4375 112.5 C128.30826172 112.97953125 129.17902344 113.4590625 130.07617188 113.953125 C133.66210505 116.25955933 133.66210505 116.25955933 137.625 117.375 C140.24749498 98.65979992 134.93778625 86.7564973 124.57446289 71.32763672 C123.28567348 69.37564934 122.05115435 67.38661677 120.87670898 65.36376953 C117.06044885 58.8358839 113.53330859 55.18909546 106.8125 51.75 C106.05001953 51.33105469 105.28753906 50.91210938 104.50195312 50.48046875 C101.90118063 49.05935699 99.27564511 47.70032255 96.625 46.375 Z M-71.41796875 56.48828125 C-72.27156731 56.98269966 -72.27156731 56.98269966 -73.14241028 57.48710632 C-74.34175979 58.18503753 -75.53764453 58.8889523 -76.73022461 59.59838867 C-78.5591716 60.68552159 -80.39838275 61.75326621 -82.24023438 62.81835938 C-88.15683425 65.74220624 -88.15683425 65.74220624 -92.375 70.375 C-89.46965435 72.08258253 -86.54916582 73.76238354 -83.625 75.4375 C-82.8 75.92283203 -81.975 76.40816406 -81.125 76.90820312 C-80.32578125 77.36259766 -79.5265625 77.81699219 -78.703125 78.28515625 C-77.9699707 78.70933838 -77.23681641 79.13352051 -76.48144531 79.57055664 C-73.90142449 80.55585667 -72.92550419 80.36132779 -70.375 79.375 C-68.90979299 78.65751048 -67.46771976 77.89160615 -66.046875 77.08984375 C-64.84804687 76.41791992 -64.84804687 76.41791992 -63.625 75.73242188 C-62.8 75.26384766 -61.975 74.79527344 -61.125 74.3125 C-60.28453125 73.84005859 -59.4440625 73.36761719 -58.578125 72.88085938 C-56.50801124 71.71642039 -54.44044986 70.5476855 -52.375 69.375 C-51.68951065 63.36036187 -51.68951065 63.36036187 -54.203125 58.21875 C-55.00234375 57.7753125 -55.8015625 57.331875 -56.625 56.875 C-57.41390625 56.4109375 -58.2028125 55.946875 -59.015625 55.46875 C-64.3768717 52.98340385 -66.18111243 53.42626383 -71.41796875 56.48828125 Z M-20.375 53.375 C-20.375 60.635 -20.375 67.895 -20.375 75.375 C-6.845 75.375 6.685 75.375 20.625 75.375 C20.625 68.115 20.625 60.855 20.625 53.375 C7.095 53.375 -6.435 53.375 -20.375 53.375 Z M58.5 55.75 C57.58992187 56.19085938 56.67984375 56.63171875 55.7421875 57.0859375 C53.32554912 59.69876055 53.08115134 60.7447014 52.7421875 64.21484375 C52.90488061 67.42524276 53.14885224 68.86523393 55.36083984 71.23339844 C57.79045951 72.89546852 60.24397616 74.24316947 62.875 75.5625 C63.74769531 76.05041016 64.62039062 76.53832031 65.51953125 77.04101562 C69.84468196 79.62569497 69.84468196 79.62569497 74.66601562 80.12646484 C76.73667174 79.33216281 78.59080045 78.41071103 80.515625 77.30859375 C81.22460938 76.90576172 81.93359375 76.50292969 82.6640625 76.08789062 C83.39367187 75.66701172 84.12328125 75.24613281 84.875 74.8125 C85.62007812 74.38775391 86.36515625 73.96300781 87.1328125 73.52539062 C88.96598961 72.47953958 90.79582677 71.42783808 92.625 70.375 C89.76263826 67.28522694 86.93770096 65.20419392 83.2734375 63.140625 C82.25765625 62.56699219 81.241875 61.99335937 80.1953125 61.40234375 C79.14085937 60.81582031 78.08640625 60.22929688 77 59.625 C75.9378125 59.02300781 74.875625 58.42101562 73.78125 57.80078125 C66.3235066 53.25726278 66.3235066 53.25726278 58.5 55.75 Z M22.625 54.375 C22.625 61.305 22.625 68.235 22.625 75.375 C27.05294722 72.83349554 27.05294722 72.83349554 31.47949219 70.28955078 C34.48960399 68.56564082 37.49684884 66.87588061 40.625 65.375 C40.625 64.715 40.625 64.055 40.625 63.375 C38.00285672 61.86980613 35.37755792 60.37068681 32.75 58.875 C32.00363281 58.44574219 31.25726563 58.01648438 30.48828125 57.57421875 C29.77285156 57.16816406 29.05742187 56.76210937 28.3203125 56.34375 C27.66047363 55.96669922 27.00063477 55.58964844 26.32080078 55.20117188 C24.63972854 54.2290084 24.63972854 54.2290084 22.625 54.375 Z M-31.375 58.75 C-32.12523437 59.1625 -32.87546875 59.575 -33.6484375 60 C-34.36257812 60.39960937 -35.07671875 60.79921875 -35.8125 61.2109375 C-36.47121094 61.57751465 -37.12992187 61.9440918 -37.80859375 62.32177734 C-39.5435778 63.30156479 -39.5435778 63.30156479 -40.375 65.375 C-37.75285672 66.88019387 -35.12755792 68.37931319 -32.5 69.875 C-31.75363281 70.30425781 -31.00726563 70.73351562 -30.23828125 71.17578125 C-29.52285156 71.58183594 -28.80742187 71.98789063 -28.0703125 72.40625 C-27.41047363 72.78330078 -26.75063477 73.16035156 -26.07080078 73.54882812 C-24.38972854 74.5209916 -24.38972854 74.5209916 -22.375 74.375 C-22.375 67.775 -22.375 61.175 -22.375 54.375 C-25.3199588 54.375 -28.86204776 57.34240132 -31.375 58.75 Z M-50.375 61.375 C-50.375 63.355 -50.375 65.335 -50.375 67.375 C-48.725 66.715 -47.075 66.055 -45.375 65.375 C-45.375 64.715 -45.375 64.055 -45.375 63.375 C-47.85 62.385 -47.85 62.385 -50.375 61.375 Z M46.625 63.375 C46.625 64.035 46.625 64.695 46.625 65.375 C49.1 66.365 49.1 66.365 51.625 67.375 C51.625 65.395 51.625 63.415 51.625 61.375 C49.30142489 61.19009993 49.30142489 61.19009993 46.625 63.375 Z M-41.375 66.375 C-42.0053051 70.44017682 -42.0053051 70.44017682 -41.375 74.375 C-38.76594911 77.01530157 -35.69130725 78.63145046 -32.4375 80.375 C-31.58736328 80.86355469 -30.73722656 81.35210937 -29.86132812 81.85546875 C-26.31821703 84.22707809 -26.31821703 84.22707809 -22.375 85.375 C-21.3895697 81.27544143 -21.3895697 81.27544143 -22.375 77.375 C-28.07030671 72.69108691 -34.79163342 69.62666283 -41.375 66.375 Z M44.625 66.375 C44.625 68.355 44.625 70.335 44.625 72.375 C46.275 71.715 47.925 71.055 49.625 70.375 C48.31299596 69.02067325 46.97868596 67.68766518 45.625 66.375 C45.295 66.375 44.965 66.375 44.625 66.375 Z M-48 68.875 C-48.45375 69.37 -48.9075 69.865 -49.375 70.375 C-47.395 71.035 -45.415 71.695 -43.375 72.375 C-43.705 70.725 -44.035 69.075 -44.375 67.375 C-46.49864481 67.14890663 -46.49864481 67.14890663 -48 68.875 Z M32.0625 71.375 C31.16080078 71.83261719 30.25910156 72.29023437 29.33007812 72.76171875 C26.82056114 74.14641066 24.69614186 75.39037057 22.625 77.375 C21.79802778 80.40608957 22.10872171 82.20211092 22.625 85.375 C29.30912752 81.73933437 35.98056707 78.08275764 42.625 74.375 C42.625 71.735 42.625 69.095 42.625 66.375 C39.21614691 66.375 34.98424117 69.78513653 32.0625 71.375 Z M-94.375 71.375 C-99.63603594 79.14403664 -104.19439084 87.43783912 -108.875 95.5625 C-109.41552002 96.49537842 -109.95604004 97.42825684 -110.51293945 98.3894043 C-111.01398193 99.26508057 -111.51502441 100.14075684 -112.03125 101.04296875 C-112.48306641 101.82953857 -112.93488281 102.6161084 -113.40039062 103.42651367 C-114.52411602 105.31001369 -114.52411602 105.31001369 -114.375 107.375 C-111.42050087 109.0485337 -108.4607982 110.71263985 -105.5 112.375 C-104.65824219 112.85195312 -103.81648438 113.32890625 -102.94921875 113.8203125 C-101.74072266 114.49707031 -101.74072266 114.49707031 -100.5078125 115.1875 C-99.76418457 115.60644531 -99.02055664 116.02539062 -98.25439453 116.45703125 C-96.42408534 117.52129451 -96.42408534 117.52129451 -94.375 117.375 C-93.67153442 116.14197144 -93.67153442 116.14197144 -92.95385742 114.8840332 C-91.20429662 111.81802692 -89.45424185 108.75230368 -87.70385742 105.68676758 C-86.94812701 104.36298654 -86.19259043 103.03909483 -85.43725586 101.71508789 C-84.34801041 99.80585675 -83.25805557 97.8970321 -82.16796875 95.98828125 C-81.83347214 95.40162186 -81.49897552 94.81496246 -81.15434265 94.21052551 C-79.6944819 91.65568308 -78.21961422 89.13116554 -76.63793945 86.64916992 C-75.13225026 84.37143483 -75.13225026 84.37143483 -75.375 81.375 C-78.35226736 79.70492313 -81.3321197 78.03951428 -84.3125 76.375 C-85.16263672 75.89804688 -86.01277344 75.42109375 -86.88867188 74.9296875 C-87.69755859 74.47851562 -88.50644531 74.02734375 -89.33984375 73.5625 C-90.0887085 73.14355469 -90.83757324 72.72460938 -91.60913086 72.29296875 C-93.19117648 71.29812655 -93.19117648 71.29812655 -94.375 71.375 Z M-50.375 71.375 C-50.51996508 75.14543032 -50.60895607 78.91514742 -50.6875 82.6875 C-50.72939453 83.75935547 -50.77128906 84.83121094 -50.81445312 85.93554688 C-50.83056641 86.96357422 -50.84667969 87.99160156 -50.86328125 89.05078125 C-50.88946533 89.99864502 -50.91564941 90.94650879 -50.94262695 91.9230957 C-50.58936374 94.61266371 -50.58936374 94.61266371 -47.96948242 96.27026367 C-46.68521362 96.81710815 -46.68521362 96.81710815 -45.375 97.375 C-44.715 97.045 -44.055 96.715 -43.375 96.375 C-43.375 89.445 -43.375 82.515 -43.375 75.375 C-46.84 73.395 -46.84 73.395 -50.375 71.375 Z M53.625 71.375 C53.625 78.305 53.625 85.235 53.625 92.375 C59.65909511 89.09721994 65.67922551 85.81033637 71.625 82.375 C68.10037717 79.55352162 64.29756859 77.39223838 60.375 75.1875 C58.1475 73.929375 55.92 72.67125 53.625 71.375 Z M85.0625 76.25 C84.26908203 76.71019531 83.47566406 77.17039062 82.65820312 77.64453125 C81.52608398 78.31162109 81.52608398 78.31162109 80.37109375 78.9921875 C79.32973267 79.60489502 79.32973267 79.60489502 78.26733398 80.22998047 C76.46851366 81.28968726 76.46851366 81.28968726 75.625 83.375 C76.72154895 85.89299863 76.72154895 85.89299863 78.37890625 88.72265625 C78.98669922 89.80353516 79.59449219 90.88441406 80.22070312 91.99804688 C80.86974609 93.13306641 81.51878906 94.26808594 82.1875 95.4375 C82.80947266 96.54544922 83.43144531 97.65339844 84.07226562 98.79492188 C87.67881755 105.16762752 91.44866934 111.35933764 95.625 117.375 C98.60041463 116.22769083 101.41641368 115.02857338 104.17578125 113.4296875 C104.79130859 113.07519531 105.40683594 112.72070312 106.04101562 112.35546875 C106.66685547 111.99066406 107.29269531 111.62585938 107.9375 111.25 C108.58267578 110.87746094 109.22785156 110.50492188 109.89257812 110.12109375 C111.47175945 109.20867787 113.04861864 108.29224491 114.625 107.375 C114.03575575 103.29234613 112.70708056 100.41707836 110.60546875 96.8828125 C109.99509766 95.84769531 109.38472656 94.81257813 108.75585938 93.74609375 C108.11455078 92.67488281 107.47324219 91.60367188 106.8125 90.5 C105.55583767 88.37769411 104.29932345 86.25530051 103.04296875 84.1328125 C102.45177246 83.13926758 101.86057617 82.14572266 101.25146484 81.12207031 C99.33951616 77.89282286 97.47232258 74.64155026 95.625 71.375 C91.75206657 71.375 88.32259569 74.31789431 85.0625 76.25 Z M-57.19140625 73.5625 C-58.33706055 74.23925781 -58.33706055 74.23925781 -59.50585938 74.9296875 C-60.30830078 75.40664062 -61.11074219 75.88359375 -61.9375 76.375 C-62.74380859 76.85195312 -63.55011719 77.32890625 -64.38085938 77.8203125 C-66.38006317 79.00327333 -68.37804308 80.18825146 -70.375 81.375 C-67.14569966 85.06096907 -63.48485426 87.05937995 -59.125 89.125 C-56.8975 90.1975 -54.67 91.27 -52.375 92.375 C-52.375 85.445 -52.375 78.515 -52.375 71.375 C-54.19031311 71.375 -55.66660377 72.65891335 -57.19140625 73.5625 Z M44.625 75.375 C44.07516401 77.78408723 44.07516401 77.78408723 44.234375 80.48046875 C44.24726563 81.46337891 44.26015625 82.44628906 44.2734375 83.45898438 C44.30695313 84.48314453 44.34046875 85.50730469 44.375 86.5625 C44.39304688 87.59826172 44.41109375 88.63402344 44.4296875 89.70117188 C44.47685563 92.26004284 44.54265943 94.81705842 44.625 97.375 C48.85584903 95.68692092 48.85584903 95.68692092 51.625 92.375 C51.64105041 90.85111237 51.5905743 89.32619326 51.50390625 87.8046875 C51.45556641 86.90878906 51.40722656 86.01289062 51.35742188 85.08984375 C51.30134766 84.15269531 51.24527344 83.21554688 51.1875 82.25 C51.13529297 81.30511719 51.08308594 80.36023438 51.02929688 79.38671875 C50.89943239 77.0491581 50.7644613 74.71200455 50.625 72.375 C47.74118219 72.375 46.68083924 73.40609792 44.625 75.375 Z M-41.375 76.375 C-41.375 83.305 -41.375 90.235 -41.375 97.375 C-32.07319708 92.88506628 -32.07319708 92.88506628 -23.375 87.375 C-26.89962283 84.55352162 -30.70243141 82.39223838 -34.625 80.1875 C-36.8525 78.929375 -39.08 77.67125 -41.375 76.375 Z M37.80859375 78.5625 C36.66293945 79.23925781 36.66293945 79.23925781 35.49414062 79.9296875 C34.69169922 80.40664062 33.88925781 80.88359375 33.0625 81.375 C32.25619141 81.85195312 31.44988281 82.32890625 30.61914062 82.8203125 C28.61993683 84.00327333 26.62195692 85.18825146 24.625 86.375 C27.67375927 89.70359708 30.84410958 91.87935293 34.75 94.125 C35.80445313 94.73859375 36.85890625 95.3521875 37.9453125 95.984375 C40.4176937 97.52853976 40.4176937 97.52853976 42.625 97.375 C42.625 90.445 42.625 83.515 42.625 76.375 C40.80968689 76.375 39.33339623 77.65891335 37.80859375 78.5625 Z M-20.375 78.375 C-20.375 81.015 -20.375 83.655 -20.375 86.375 C-6.845 86.375 6.685 86.375 20.625 86.375 C20.625 83.735 20.625 81.095 20.625 78.375 C7.095 78.375 -6.435 78.375 -20.375 78.375 Z M-73.375 83.375 C-75.5843845 87.31191103 -77.79231003 91.24963852 -80 95.1875 C-80.92619141 96.83782227 -80.92619141 96.83782227 -81.87109375 98.52148438 C-85.75299177 105.44760769 -89.58608274 112.39756314 -93.375 119.375 C-87.105 123.005 -80.835 126.635 -74.375 130.375 C-71.39446939 127.39446939 -69.73035009 124.77656154 -67.65234375 121.1328125 C-67.30619522 120.52742645 -66.96004669 119.92204041 -66.60340881 119.29830933 C-65.87414621 118.02034874 -65.1472605 116.74102922 -64.42260742 115.46044922 C-63.31842352 113.51046093 -62.20574374 111.5655179 -61.09179688 109.62109375 C-56.81335601 102.20380738 -56.81335601 102.20380738 -53.375 94.375 C-56.51881306 92.53818536 -59.66537629 90.7061356 -62.8125 88.875 C-63.71033203 88.35035156 -64.60816406 87.82570313 -65.53320312 87.28515625 C-66.38720703 86.78886719 -67.24121094 86.29257813 -68.12109375 85.78125 C-69.30723267 85.08999023 -69.30723267 85.08999023 -70.51733398 84.38476562 C-72.1690374 83.29540443 -72.1690374 83.29540443 -73.375 83.375 Z M72.625 83.375 C66.355 87.005 60.085 90.635 53.625 94.375 C58.02215462 102.47252935 62.49039744 110.52712258 67 118.5625 C67.64066406 119.70525391 68.28132812 120.84800781 68.94140625 122.02539062 C70.50204076 124.80891038 72.06324768 127.59210732 73.625 130.375 C78.93756038 127.76565286 84.20217356 125.16330767 89.25 122.0625 C90.08789062 121.55074219 90.92578125 121.03898437 91.7890625 120.51171875 C92.39492188 120.13660156 93.00078125 119.76148438 93.625 119.375 C91.371483 113.29327045 88.01648917 107.80897613 84.80297852 102.19970703 C83.68884982 100.2523593 82.58344011 98.30023775 81.47851562 96.34765625 C80.76875307 95.10386756 80.05848376 93.86036787 79.34765625 92.6171875 C78.70578369 91.4916748 78.06391113 90.36616211 77.40258789 89.20654297 C75.64304556 86.17013243 75.64304556 86.17013243 72.625 83.375 Z M-20.375 88.375 C-20.375 95.635 -20.375 102.895 -20.375 110.375 C-0.08 110.87 -0.08 110.87 20.625 111.375 C20.625 103.785 20.625 96.195 20.625 88.375 C7.095 88.375 -6.435 88.375 -20.375 88.375 Z M22.625 89.375 C22.625 96.305 22.625 103.235 22.625 110.375 C24.8525 109.116875 27.08 107.85875 29.375 106.5625 C30.06948242 106.17215576 30.76396484 105.78181152 31.47949219 105.37963867 C34.69275078 103.553755 37.73091546 101.69172929 40.625 99.375 C32.21531708 92.73995775 32.21531708 92.73995775 22.625 89.375 Z M-27.19140625 91.5625 C-28.33706055 92.23925781 -28.33706055 92.23925781 -29.50585938 92.9296875 C-30.30830078 93.40664062 -31.11074219 93.88359375 -31.9375 94.375 C-32.74380859 94.85195312 -33.55011719 95.32890625 -34.38085938 95.8203125 C-36.38006317 97.00327333 -38.37804308 98.18825146 -40.375 99.375 C-36.85037717 102.19647838 -33.04756859 104.35776162 -29.125 106.5625 C-26.8975 107.820625 -24.67 109.07875 -22.375 110.375 C-22.375 103.445 -22.375 96.515 -22.375 89.375 C-24.19031311 89.375 -25.66660377 90.65891335 -27.19140625 91.5625 Z M-51.375 96.375 C-53.02665993 98.59466457 -53.02665993 98.59466457 -54.75 101.5625 C-55.08580078 102.11897217 -55.42160156 102.67544434 -55.76757812 103.2487793 C-61.12468057 112.19908923 -66.23615531 121.29834821 -71.375 130.375 C-69.01207344 132.90088702 -67.71037489 134.26320837 -64.375 135.375 C-63.98231934 134.70033691 -63.58963867 134.02567383 -63.18505859 133.33056641 C-61.37405362 130.21998043 -59.56203256 127.10998747 -57.75 124 C-57.13253906 122.93910156 -56.51507813 121.87820312 -55.87890625 120.78515625 C-55.26660156 119.73457031 -54.65429688 118.68398437 -54.0234375 117.6015625 C-53.4159668 116.5590332 -52.80849609 115.51650391 -52.18261719 114.44238281 C-49.97908361 110.70316133 -47.714899 107.00285546 -45.42822266 103.31396484 C-44.21589451 101.44984784 -44.21589451 101.44984784 -44.375 99.375 C-47.59614157 97.05907978 -47.59614157 97.05907978 -51.375 96.375 Z M45.625 99.375 C46.30884179 102.99802063 47.8353972 105.79246785 49.64453125 108.98828125 C50.25490234 110.07173828 50.86527344 111.15519531 51.49414062 112.27148438 C52.45610352 113.96241211 52.45610352 113.96241211 53.4375 115.6875 C54.06720703 116.80318359 54.69691406 117.91886719 55.34570312 119.06835938 C58.42177396 124.51361803 61.51622695 129.94835083 64.625 135.375 C67.33098597 134.52047812 69.1760421 133.92858349 70.98901367 131.69311523 C71.91566958 129.23549103 71.91566958 129.23549103 70.4309082 126.42993164 C69.76921631 125.30965576 69.10752441 124.18937988 68.42578125 123.03515625 C68.07492966 122.43118515 67.72407806 121.82721405 67.3625946 121.2049408 C66.23575146 119.27328764 65.08714189 117.3556538 63.9375 115.4375 C63.18147773 114.14994762 62.42690296 112.86154414 61.67382812 111.57226562 C59.67632504 108.16186029 57.65553408 104.76586535 55.625 101.375 C54.82485474 99.9372522 54.82485474 99.9372522 54.00854492 98.47045898 C53.5519751 97.77895752 53.09540527 97.08745605 52.625 96.375 C49.72991489 96.375 48.02803527 97.85729352 45.625 99.375 Z M-42.375 101.375 C-49.73252755 112.23995164 -55.9161424 123.96683242 -62.375 135.375 C-59.0856702 139.0445036 -55.50057223 141.25870205 -51.25 143.625 C-50.61707031 143.98851562 -49.98414062 144.35203125 -49.33203125 144.7265625 C-46.05804907 146.71742891 -46.05804907 146.71742891 -42.375 147.375 C-41.67153442 146.14197144 -41.67153442 146.14197144 -40.95385742 144.8840332 C-39.20429662 141.81802692 -37.45424185 138.75230368 -35.70385742 135.68676758 C-34.94812701 134.36298654 -34.19259043 133.03909483 -33.43725586 131.71508789 C-32.34801041 129.80585675 -31.25805557 127.8970321 -30.16796875 125.98828125 C-29.83347214 125.40162186 -29.49897552 124.81496246 -29.15434265 124.21052551 C-27.6944819 121.65568308 -26.21961422 119.13116554 -24.63793945 116.64916992 C-23.13225026 114.37143483 -23.13225026 114.37143483 -23.375 111.375 C-26.35226736 109.70492313 -29.3321197 108.03951428 -32.3125 106.375 C-33.16263672 105.89804688 -34.01277344 105.42109375 -34.88867188 104.9296875 C-35.69755859 104.47851562 -36.50644531 104.02734375 -37.33984375 103.5625 C-38.0887085 103.14355469 -38.83757324 102.72460938 -39.60913086 102.29296875 C-41.19117648 101.29812655 -41.19117648 101.29812655 -42.375 101.375 Z M33.0625 106.25 C32.26908203 106.71019531 31.47566406 107.17039062 30.65820312 107.64453125 C29.52608398 108.31162109 29.52608398 108.31162109 28.37109375 108.9921875 C27.32973267 109.60489502 27.32973267 109.60489502 26.26733398 110.22998047 C24.46851366 111.28968726 24.46851366 111.28968726 23.625 113.375 C24.94980639 116.23681636 24.94980639 116.23681636 26.88671875 119.484375 C27.23378372 120.08880432 27.58084869 120.69323364 27.93843079 121.315979 C28.67714167 122.59920385 29.41970883 123.88021514 30.16577148 125.15917969 C31.29739027 127.0990976 32.41830798 129.04485495 33.53710938 130.9921875 C36.75192094 136.56283855 40.01241733 142.05288711 43.625 147.375 C48.01883706 145.77876856 51.91495807 143.59475667 55.9375 141.25 C56.58267578 140.87746094 57.22785156 140.50492188 57.89257812 140.12109375 C59.47175945 139.20867787 61.04861864 138.29224491 62.625 137.375 C62.03142516 133.10518562 60.52200156 130.08020405 58.3515625 126.375 C57.6915625 125.240625 57.0315625 124.10625 56.3515625 122.9375 C55.65117785 121.74991968 54.9506558 120.56242037 54.25 119.375 C53.55664713 118.18787621 52.8639325 117.00037941 52.171875 115.8125 C50.33142122 112.66152855 48.48366289 109.51526029 46.625 106.375 C46.09825684 105.42625 45.57151367 104.4775 45.02880859 103.5 C44.56555176 102.79875 44.10229492 102.0975 43.625 101.375 C39.75206657 101.375 36.32259569 104.31789431 33.0625 106.25 Z M-115.375 108.375 C-115.67328022 112.94595316 -115.89000804 117.51118879 -116.03417969 122.08959961 C-116.0942806 123.64333738 -116.17600521 125.19640295 -116.28027344 126.74780273 C-116.61437711 131.8494348 -116.71398602 136.4105839 -115.375 141.375 C-111.77940153 144.83334713 -108.04268796 146.69412364 -103.375 148.375 C-101.065 147.055 -98.755 145.735 -96.375 144.375 C-94.67462597 131.80635324 -94.67462597 131.80635324 -96.375 119.375 C-100.75124457 113.71578945 -107.74014872 110.67834738 -114.375 108.375 C-114.705 108.375 -115.035 108.375 -115.375 108.375 Z M117.625 108.375 C117.32671978 112.94595316 117.10999196 117.51118879 116.96582031 122.08959961 C116.9057194 123.64333738 116.82399479 125.19640295 116.71972656 126.74780273 C116.38562289 131.8494348 116.28601398 136.4105839 117.625 141.375 C121.22059847 144.83334713 124.95731204 146.69412364 129.625 148.375 C132.73282199 147.11990952 135.22601689 145.73737669 137.625 143.375 C138.87052836 139.5507974 138.79013945 135.9304251 138.6875 131.9375 C138.72681641 130.91333984 138.76613281 129.88917969 138.80664062 128.83398438 C138.77568123 123.19028531 138.77568123 123.19028531 135.93310547 118.52685547 C133.57268497 116.90844704 131.19258406 115.63915223 128.625 114.375 C126.60284653 113.25237464 124.58200209 112.12738798 122.5625 111 C120.91894336 110.12073102 119.2739278 109.24415446 117.625 108.375 Z M-134.70361328 117.27880859 C-138.09022639 121.5261735 -137.96803709 126.44451657 -137.9375 131.6875 C-137.9389502 132.7496875 -137.94040039 133.811875 -137.94189453 134.90625 C-137.63612856 140.64776891 -137.63612856 140.64776891 -134.48388672 145.21630859 C-132.48799731 146.47284884 -130.56018778 147.49469319 -128.375 148.375 C-124.04345231 146.64140425 -120.63125083 144.75093317 -117.375 141.375 C-115.97275505 135.84823899 -116.32812759 130.58698215 -116.6875 124.9375 C-116.74273868 123.42791265 -116.79291822 121.91813119 -116.83789062 120.40820312 C-116.95851944 116.72640517 -117.14791045 113.05194502 -117.375 109.375 C-123.45826343 109.375 -130.14622435 113.53443468 -134.70361328 117.27880859 Z M98.29638672 117.27880859 C94.90977361 121.5261735 95.03196291 126.44451657 95.0625 131.6875 C95.0610498 132.7496875 95.05959961 133.811875 95.05810547 134.90625 C95.36387144 140.64776891 95.36387144 140.64776891 98.51611328 145.21630859 C100.51200269 146.47284884 102.43981222 147.49469319 104.625 148.375 C108.95654769 146.64140425 112.36874917 144.75093317 115.625 141.375 C117.02724495 135.84823899 116.67187241 130.58698215 116.3125 124.9375 C116.25726132 123.42791265 116.20708178 121.91813119 116.16210938 120.40820312 C116.04148056 116.72640517 115.85208955 113.05194502 115.625 109.375 C109.54173657 109.375 102.85377565 113.53443468 98.29638672 117.27880859 Z M-21.375 113.375 C-21.64781799 113.87150558 -21.92063599 114.36801117 -22.20172119 114.87956238 C-31.15865642 131.15673848 -31.15865642 131.15673848 -34.609375 136.67578125 C-35.03734375 137.36220703 -35.4653125 138.04863281 -35.90625 138.75585938 C-36.75504042 140.10113779 -37.61533101 141.43919998 -38.484375 142.77148438 C-39.91242843 144.99784741 -39.91242843 144.99784741 -41.375 148.375 C-40.17653549 152.50376893 -37.90950018 156.12972048 -35.78515625 159.84765625 C-35.43996445 160.45258408 -35.09477264 161.0575119 -34.73912048 161.68077087 C-34.01197603 162.95319924 -33.28323301 164.22471528 -32.55297852 165.49536133 C-31.44035067 167.43253676 -30.33409208 169.37324657 -29.22851562 171.31445312 C-28.51860684 172.55490372 -27.80833261 173.79514525 -27.09765625 175.03515625 C-26.45578369 176.15543213 -25.81391113 177.27570801 -25.15258789 178.42993164 C-24.56598389 179.4018042 -23.97937988 180.37367676 -23.375 181.375 C-22.99875488 182.15770264 -22.62250977 182.94040527 -22.23486328 183.74682617 C-18.99703921 186.58130356 -15.0300422 185.86015202 -10.89453125 185.765625 C-9.96654221 185.75996521 -9.03855316 185.75430542 -8.08244324 185.74847412 C-5.11693854 185.72607376 -2.1526398 185.67587073 0.8125 185.625 C2.82224818 185.60493973 4.83201529 185.58668813 6.84179688 185.5703125 C11.76999629 185.52619696 16.69729365 185.45714424 21.625 185.375 C23.67064528 181.83755395 25.71527627 178.29952372 27.7590332 174.76098633 C28.45212481 173.56128732 29.145477 172.36173882 29.83911133 171.16235352 C31.49937118 168.29136266 33.15497559 165.41803927 34.80224609 162.53955078 C35.93745895 160.56866556 37.08872028 158.60682946 38.26416016 156.65966797 C38.72999512 155.87350098 39.19583008 155.08733398 39.67578125 154.27734375 C40.28353394 153.27755493 40.28353394 153.27755493 40.90356445 152.25756836 C41.82986681 149.84040509 41.52241463 148.77692981 40.625 146.375 C40.0121575 145.08651548 39.35238456 143.81967649 38.65625 142.57421875 C38.24890625 141.84267578 37.8415625 141.11113281 37.421875 140.35742188 C36.99390625 139.60009766 36.5659375 138.84277344 36.125 138.0625 C35.52945313 136.99032227 35.52945313 136.99032227 34.921875 135.89648438 C34.04247693 134.32632455 33.13380196 132.7723494 32.20288086 131.23217773 C30.94972351 128.96299927 29.99747198 126.85159304 29.04907227 124.45727539 C27.20136332 120.19887557 25.34955951 116.2832471 21.625 113.375 C14.62027629 110.94068741 6.82706296 111.96936937 -0.4375 112.4375 C-2.46785275 112.51281823 -4.49847351 112.58124618 -6.52929688 112.64257812 C-11.48452214 112.80718339 -16.4268039 113.06540036 -21.375 113.375 Z M-93.375 121.375 C-93.375 128.305 -93.375 135.235 -93.375 142.375 C-91.1475 141.116875 -88.92 139.85875 -86.625 138.5625 C-85.93051758 138.17215576 -85.23603516 137.78181152 -84.52050781 137.37963867 C-81.30724922 135.553755 -78.26908454 133.69172929 -75.375 131.375 C-78.18542924 129.70482236 -80.99867657 128.03945191 -83.8125 126.375 C-84.61494141 125.89804688 -85.41738281 125.42109375 -86.24414062 124.9296875 C-87.00791016 124.47851562 -87.77167969 124.02734375 -88.55859375 123.5625 C-89.26556396 123.14355469 -89.97253418 122.72460938 -90.70092773 122.29296875 C-92.2029319 121.29486599 -92.2029319 121.29486599 -93.375 121.375 Z M88.9296875 123.5625 C87.85654297 124.23925781 87.85654297 124.23925781 86.76171875 124.9296875 C86.01535156 125.40664062 85.26898438 125.88359375 84.5 126.375 C83.74589844 126.85195312 82.99179687 127.32890625 82.21484375 127.8203125 C80.34898961 129.00123284 78.48587992 130.18626257 76.625 131.375 C79.89094085 134.07218634 83.17935607 136.44841151 86.8125 138.625 C87.67230469 139.14578125 88.53210938 139.6665625 89.41796875 140.203125 C91.50292974 141.53132157 91.50292974 141.53132157 93.625 141.375 C93.955 134.775 94.285 128.175 94.625 121.375 C92.07569506 121.375 91.07439887 122.2007785 88.9296875 123.5625 Z M-78.60546875 135.5625 C-79.40791016 136.01367188 -80.21035156 136.46484375 -81.03710938 136.9296875 C-81.87048828 137.40664062 -82.70386719 137.88359375 -83.5625 138.375 C-84.8299707 139.09042969 -84.8299707 139.09042969 -86.12304688 139.8203125 C-88.21031832 140.9995619 -90.29405982 142.18462497 -92.375 143.375 C-90.2595461 145.70199929 -88.40005743 147.40210659 -85.375 148.375 C-83.07745656 147.64067912 -83.07745656 147.64067912 -80.828125 146.1640625 C-79.98378906 145.66132813 -79.13945313 145.15859375 -78.26953125 144.640625 C-77.39683594 144.09921875 -76.52414063 143.5578125 -75.625 143 C-74.29275391 142.19949219 -74.29275391 142.19949219 -72.93359375 141.3828125 C-70.73832846 140.06093233 -68.55316668 138.72480521 -66.375 137.375 C-71.10349455 133.2854912 -73.1175786 132.44880346 -78.60546875 135.5625 Z M67.625 136.375 C69.65891933 138.53961294 71.64358932 140.12955268 74.19921875 141.63671875 C74.86630859 142.03310547 75.53339844 142.42949219 76.22070312 142.83789062 C76.91099609 143.24201172 77.60128906 143.64613281 78.3125 144.0625 C79.01439453 144.47822266 79.71628906 144.89394531 80.43945312 145.32226562 C82.16559738 146.3438612 83.89498515 147.35997284 85.625 148.375 C87.935 147.055 90.245 145.735 92.625 144.375 C89.08644349 141.42402667 85.47352207 138.95533625 81.5 136.625 C79.94925781 135.70460937 79.94925781 135.70460937 78.3671875 134.765625 C73.72268012 132.41029077 71.74730215 133.70107428 67.625 136.375 Z M-72.6875 142.1875 C-73.56051758 142.72213867 -73.56051758 142.72213867 -74.45117188 143.26757812 C-77.53835334 145.17302988 -80.5176235 147.13848556 -83.375 149.375 C-81.31547642 150.67162538 -79.25262943 151.96235727 -77.1875 153.25 C-76.60935547 153.61480469 -76.03121094 153.97960937 -75.43554688 154.35546875 C-72.10198027 156.42717681 -69.05860107 157.90155957 -65.375 159.375 C-65.375 152.445 -65.375 145.515 -65.375 138.375 C-67.83025422 138.375 -70.59035929 140.8873183 -72.6875 142.1875 Z M-63.375 138.375 C-63.375 145.305 -63.375 152.235 -63.375 159.375 C-59.32795843 157.75618337 -55.87012822 156.05197109 -52.125 153.875 C-51.06796875 153.2665625 -50.0109375 152.658125 -48.921875 152.03125 C-46.28901705 150.62471294 -46.28901705 150.62471294 -45.375 148.375 C-48.18542924 146.70482236 -50.99867657 145.03945191 -53.8125 143.375 C-54.61494141 142.89804688 -55.41738281 142.42109375 -56.24414062 141.9296875 C-57.00791016 141.47851562 -57.77167969 141.02734375 -58.55859375 140.5625 C-59.26556396 140.14355469 -59.97253418 139.72460938 -60.70092773 139.29296875 C-62.2029319 138.29486599 -62.2029319 138.29486599 -63.375 138.375 Z M65.625 138.375 C65.625 145.305 65.625 152.235 65.625 159.375 C69.78708077 157.71016769 73.5149777 155.88955762 77.4375 153.75 C78.3337207 153.26273438 78.3337207 153.26273438 79.24804688 152.765625 C80.70837135 151.97120849 82.16687491 151.17344624 83.625 150.375 C83.625 149.715 83.625 149.055 83.625 148.375 C82.02680771 147.14522117 82.02680771 147.14522117 79.94140625 145.9921875 C79.17892578 145.54746094 78.41644531 145.10273438 77.63085938 144.64453125 C76.82455078 144.18433594 76.01824219 143.72414062 75.1875 143.25 C74.38505859 142.78207031 73.58261719 142.31414062 72.75585938 141.83203125 C69.38450158 139.50896527 69.38450158 139.50896527 65.625 138.375 Z M57.9296875 141.34375 C57.21425781 141.74980469 56.49882812 142.15585938 55.76171875 142.57421875 C55.01535156 143.00347656 54.26898438 143.43273437 53.5 143.875 C52.74589844 144.30425781 51.99179688 144.73351562 51.21484375 145.17578125 C49.34938952 146.23838176 47.48691125 147.30620357 45.625 148.375 C48.58484901 151.51767308 52.01030443 153.47355894 55.75 155.5625 C56.71873047 156.11454102 56.71873047 156.11454102 57.70703125 156.67773438 C60.50295943 158.55328425 60.50295943 158.55328425 63.625 159.375 C63.625 152.775 63.625 146.175 63.625 139.375 C61.14828855 139.375 60.07366316 140.11862105 57.9296875 141.34375 Z M-122 145.875 C-122.81726563 146.3390625 -123.63453125 146.803125 -124.4765625 147.28125 C-125.10304688 147.6421875 -125.72953125 148.003125 -126.375 148.375 C-123.14720989 152.11923653 -120.20643403 154.18694245 -115.375 155.375 C-112.07890384 154.12584254 -109.26090021 152.38400536 -106.375 150.375 C-106.375 149.715 -106.375 149.055 -106.375 148.375 C-107.83037568 147.53651196 -109.28940373 146.70436066 -110.75 145.875 C-111.56210938 145.4109375 -112.37421875 144.946875 -113.2109375 144.46875 C-116.96720948 142.57027319 -118.52550312 143.88957321 -122 145.875 Z M111 145.875 C110.18273437 146.3390625 109.36546875 146.803125 108.5234375 147.28125 C107.89695312 147.6421875 107.27046875 148.003125 106.625 148.375 C109.85279011 152.11923653 112.79356597 154.18694245 117.625 155.375 C120.92109616 154.12584254 123.73909979 152.38400536 126.625 150.375 C126.625 149.715 126.625 149.055 126.625 148.375 C125.16962432 147.53651196 123.71059627 146.70436066 122.25 145.875 C121.43789063 145.4109375 120.62578125 144.946875 119.7890625 144.46875 C116.03279052 142.57027319 114.47449688 143.88957321 111 145.875 Z M-136.375 146.375 C-136.375 148.355 -136.375 150.335 -136.375 152.375 C-134.725 151.385 -133.075 150.395 -131.375 149.375 C-133.63824284 147.29640082 -133.63824284 147.29640082 -136.375 146.375 Z M-101.375 149.375 C-100.055 150.365 -98.735 151.355 -97.375 152.375 C-96.715 152.045 -96.055 151.715 -95.375 151.375 C-95.375 149.725 -95.375 148.075 -95.375 146.375 C-98.13723278 146.375 -99.26781454 147.68925163 -101.375 149.375 Z M-93.375 146.375 C-93.375 148.355 -93.375 150.335 -93.375 152.375 C-91.725 151.385 -90.075 150.395 -88.375 149.375 C-90.63824284 147.29640082 -90.63824284 147.29640082 -93.375 146.375 Z M88.625 149.375 C89.945 150.365 91.265 151.355 92.625 152.375 C93.285 152.045 93.945 151.715 94.625 151.375 C94.625 149.725 94.625 148.075 94.625 146.375 C91.86276722 146.375 90.73218546 147.68925163 88.625 149.375 Z M96.625 146.375 C96.625 148.355 96.625 150.335 96.625 152.375 C98.275 151.385 99.925 150.395 101.625 149.375 C99.36175716 147.29640082 99.36175716 147.29640082 96.625 146.375 Z M131.625 149.375 C133.605 150.365 135.585 151.355 137.625 152.375 C137.625 150.395 137.625 148.415 137.625 146.375 C134.86276722 146.375 133.73218546 147.68925163 131.625 149.375 Z M-112.94775391 154.78564453 C-116.53740839 158.61504259 -116.48300458 162.21826663 -116.42385864 167.19058228 C-116.34043421 169.40134536 -116.20294181 171.60469696 -116.0625 173.8125 C-116.00726132 175.32208735 -115.95708178 176.83186881 -115.91210938 178.34179688 C-115.79148056 182.02359483 -115.60208955 185.69805498 -115.375 189.375 C-112.39958537 188.22769083 -109.58358632 187.02857338 -106.82421875 185.4296875 C-106.20869141 185.07519531 -105.59316406 184.72070312 -104.95898438 184.35546875 C-104.33314453 183.99066406 -103.70730469 183.62585938 -103.0625 183.25 C-102.41732422 182.87746094 -101.77214844 182.50492188 -101.10742188 182.12109375 C-99.52824055 181.20867787 -97.95138136 180.29224491 -96.375 179.375 C-96.20078883 175.29220499 -96.09417412 171.21036319 -96 167.125 C-95.94972656 165.96613281 -95.89945313 164.80726563 -95.84765625 163.61328125 C-95.49742113 157.81080397 -95.49742113 157.81080397 -97.66699219 152.68554688 C-103.50583145 148.6604747 -107.53448298 151.27784497 -112.94775391 154.78564453 Z M43.625 150.375 C41.57643309 153.89244527 39.53196045 157.41223674 37.4909668 160.93408203 C36.7986805 162.12741354 36.10535208 163.32014119 35.41088867 164.51220703 C31.2319207 171.68735927 27.21547591 178.88583445 23.625 186.375 C26.5789168 188.21552424 29.53882908 190.04617365 32.5 191.875 C33.34175781 192.39964844 34.18351563 192.92429688 35.05078125 193.46484375 C35.85644531 193.96113281 36.66210938 194.45742187 37.4921875 194.96875 C38.60762939 195.66000977 38.60762939 195.66000977 39.74560547 196.36523438 C41.56305424 197.5327648 41.56305424 197.5327648 43.625 197.375 C44.02291748 196.65957031 44.42083496 195.94414062 44.83081055 195.20703125 C46.32948298 192.51486267 47.83002805 189.82374861 49.33178711 187.13330078 C50.29226938 185.41127108 51.25064974 183.68806956 52.20898438 181.96484375 C54.89838213 177.1492729 57.57212235 172.39507598 60.64453125 167.8125 C62.84730301 164.73461457 62.84730301 164.73461457 62.46923828 162.30541992 C61.40317473 159.86777836 60.4248155 159.29842832 58.09765625 158.05078125 C57.38802734 157.66212891 56.67839844 157.27347656 55.94726562 156.87304688 C55.20154297 156.48181641 54.45582031 156.09058594 53.6875 155.6875 C52.94564453 155.28466797 52.20378906 154.88183594 51.43945312 154.46679688 C48.85200855 153.06633957 46.25654538 151.69077269 43.625 150.375 Z M77.0625 155.25 C76.26908203 155.71019531 75.47566406 156.17039063 74.65820312 156.64453125 C73.52608398 157.31162109 73.52608398 157.31162109 72.37109375 157.9921875 C71.32973267 158.60489502 71.32973267 158.60489502 70.26733398 159.22998047 C68.46851366 160.28968726 68.46851366 160.28968726 67.625 162.375 C69.7697024 164.13028019 69.7697024 164.13028019 72.625 165.375 C77.55762734 164.18436581 81.67501607 161.8052619 86 159.25 C86.96099609 158.69119141 86.96099609 158.69119141 87.94140625 158.12109375 C89.50548477 157.21065998 91.06565534 156.29351809 92.625 155.375 C92.625 154.715 92.625 154.055 92.625 153.375 C85.95455722 148.81101283 83.44213415 151.46909029 77.0625 155.25 Z M120.05224609 154.78564453 C116.46259161 158.61504259 116.51699542 162.21826663 116.57614136 167.19058228 C116.65956579 169.40134536 116.79705819 171.60469696 116.9375 173.8125 C116.99273868 175.32208735 117.04291822 176.83186881 117.08789062 178.34179688 C117.20851944 182.02359483 117.39791045 185.69805498 117.625 189.375 C120.58200688 188.23303814 123.39193259 187.04426256 126.140625 185.46484375 C126.75164062 185.11486328 127.36265625 184.76488281 127.9921875 184.40429688 C128.61351562 184.04400391 129.23484375 183.68371094 129.875 183.3125 C130.51179688 182.94833984 131.14859375 182.58417969 131.8046875 182.20898438 C134.89639044 180.54240226 134.89639044 180.54240226 137.625 178.375 C138.01646024 174.6357037 138.04323006 170.88187434 138.125 167.125 C138.17914063 166.07441406 138.23328125 165.02382812 138.2890625 163.94140625 C138.53591833 158.33411166 138.53591833 158.33411166 136.1015625 153.52539062 C129.89049483 148.9572921 126.32551252 150.72056789 120.05224609 154.78564453 Z M-129.375 150.375 C-131.685 151.695 -133.995 153.015 -136.375 154.375 C-136.375 162.625 -136.375 170.875 -136.375 179.375 C-133.425625 181.025 -130.47625 182.675 -127.4375 184.375 C-126.50687744 184.89707031 -125.57625488 185.41914063 -124.61743164 185.95703125 C-123.88903076 186.36308594 -123.16062988 186.76914063 -122.41015625 187.1875 C-121.28685913 187.81591797 -121.28685913 187.81591797 -120.14086914 188.45703125 C-118.55882352 189.45187345 -118.55882352 189.45187345 -117.375 189.375 C-117.375 178.485 -117.375 167.595 -117.375 156.375 C-121.335 154.395 -125.295 152.415 -129.375 150.375 Z M-91.375 153.375 C-91.375 154.035 -91.375 154.695 -91.375 155.375 C-88.85524332 157.39853002 -86.01947957 158.96695631 -83.25 160.625 C-82.10917969 161.35203125 -82.10917969 161.35203125 -80.9453125 162.09375 C-76.28389502 164.94784393 -76.28389502 164.94784393 -70.9453125 164.796875 C-68.30867922 163.4929855 -68.30867922 163.4929855 -66.375 161.375 C-69.51881306 159.53818536 -72.66537629 157.7061356 -75.8125 155.875 C-77.15924805 155.08802734 -77.15924805 155.08802734 -78.53320312 154.28515625 C-79.38720703 153.78886719 -80.24121094 153.29257813 -81.12109375 152.78125 C-81.91185303 152.32041016 -82.7026123 151.85957031 -83.51733398 151.38476562 C-86.86362677 149.56583187 -88.33567862 151.34878574 -91.375 153.375 Z M-49.38671875 153.5625 C-50.14404297 154.01367188 -50.90136719 154.46484375 -51.68164062 154.9296875 C-52.46732422 155.40664062 -53.25300781 155.88359375 -54.0625 156.375 C-55.25842773 157.09042969 -55.25842773 157.09042969 -56.47851562 157.8203125 C-58.44759831 158.99940393 -60.41282548 160.18446003 -62.375 161.375 C-60.6508591 166.14954403 -58.22309508 170.45988817 -55.75 174.875 C-55.30994629 175.66438965 -54.86989258 176.4537793 -54.41650391 177.26708984 C-50.58796898 184.08886809 -46.55646204 190.76408515 -42.375 197.375 C-35.89786393 193.91020846 -29.55857143 190.34181941 -23.375 186.375 C-24.66149903 182.13530315 -26.27476684 178.52561866 -28.52734375 174.71484375 C-29.13900391 173.67392578 -29.75066406 172.63300781 -30.38085938 171.56054688 C-31.01830078 170.48869141 -31.65574219 169.41683594 -32.3125 168.3125 C-32.94607422 167.23677734 -33.57964844 166.16105469 -34.23242188 165.05273438 C-35.94014965 162.15624132 -37.65404146 159.26364827 -39.375 156.375 C-40.12632202 154.9664978 -40.12632202 154.9664978 -40.89282227 153.52954102 C-41.38194092 152.81854248 -41.87105957 152.10754395 -42.375 151.375 C-45.6751751 151.375 -46.6273015 151.90270015 -49.38671875 153.5625 Z M103.625 150.375 C101.315 151.695 99.005 153.015 96.625 154.375 C96.625 162.625 96.625 170.875 96.625 179.375 C99.574375 181.025 102.52375 182.675 105.5625 184.375 C106.49312256 184.89707031 107.42374512 185.41914063 108.38256836 185.95703125 C109.11096924 186.36308594 109.83937012 186.76914063 110.58984375 187.1875 C111.71314087 187.81591797 111.71314087 187.81591797 112.85913086 188.45703125 C114.44117648 189.45187345 114.44117648 189.45187345 115.625 189.375 C115.625 178.485 115.625 167.595 115.625 156.375 C111.665 154.395 107.705 152.415 103.625 150.375 Z M-93.375 156.375 C-93.375 163.305 -93.375 170.235 -93.375 177.375 C-91.1475 176.116875 -88.92 174.85875 -86.625 173.5625 C-85.93051758 173.17215576 -85.23603516 172.78181152 -84.52050781 172.37963867 C-81.30724922 170.553755 -78.26908454 168.69172929 -75.375 166.375 C-78.18542924 164.70482236 -80.99867657 163.03945191 -83.8125 161.375 C-84.61494141 160.89804688 -85.41738281 160.42109375 -86.24414062 159.9296875 C-87.00791016 159.47851562 -87.77167969 159.02734375 -88.55859375 158.5625 C-89.26556396 158.14355469 -89.97253418 157.72460938 -90.70092773 157.29296875 C-92.2029319 156.29486599 -92.2029319 156.29486599 -93.375 156.375 Z M88.9296875 158.5625 C87.85654297 159.23925781 87.85654297 159.23925781 86.76171875 159.9296875 C86.01535156 160.40664062 85.26898438 160.88359375 84.5 161.375 C83.74589844 161.85195312 82.99179687 162.32890625 82.21484375 162.8203125 C80.34898961 164.00123284 78.48587992 165.18626257 76.625 166.375 C79.36194979 169.24437469 82.24810549 171.06907208 85.6875 173.0625 C86.75097656 173.68511719 87.81445312 174.30773437 88.91015625 174.94921875 C91.40903271 176.52998624 91.40903271 176.52998624 93.625 176.375 C93.955 169.775 94.285 163.175 94.625 156.375 C92.07569506 156.375 91.07439887 157.2007785 88.9296875 158.5625 Z M64.625 163.375 C64.2626123 164.01937012 63.90022461 164.66374023 63.52685547 165.32763672 C61.85268637 168.30257609 60.17635506 171.27629189 58.5 174.25 C57.93023437 175.26320312 57.36046875 176.27640625 56.7734375 177.3203125 C53.53160197 183.06720275 50.21825357 188.74062076 46.69580078 194.32080078 C45.39387909 196.43228727 45.39387909 196.43228727 45.625 199.375 C48.82947416 201.72094772 48.82947416 201.72094772 52.625 202.375 C53.02291748 201.65957031 53.42083496 200.94414062 53.83081055 200.20703125 C55.32948298 197.51486267 56.83002805 194.82374861 58.33178711 192.13330078 C59.29226938 190.41127108 60.25064974 188.68806956 61.20898438 186.96484375 C63.89709761 182.15157292 66.57992877 177.3754616 69.58203125 172.75 C71.88392041 169.60478941 71.88392041 169.60478941 71.625 166.375 C68.42052584 164.02905228 68.42052584 164.02905228 64.625 163.375 Z M-71.375 166.375 C-69.6508591 171.14954403 -67.22309508 175.45988817 -64.75 179.875 C-64.30994629 180.66438965 -63.86989258 181.4537793 -63.41650391 182.26708984 C-59.58796898 189.08886809 -55.55646204 195.76408515 -51.375 202.375 C-49.065 201.385 -46.755 200.395 -44.375 199.375 C-45.79558995 195.59781588 -47.52090178 192.14831759 -49.4921875 188.62890625 C-50.09933594 187.54416016 -50.70648438 186.45941406 -51.33203125 185.34179688 C-51.96496094 184.21837891 -52.59789063 183.09496094 -53.25 181.9375 C-53.87519531 180.81794922 -54.50039062 179.69839844 -55.14453125 178.54492188 C-58.05506532 173.36072536 -60.95142369 168.24395586 -64.375 163.375 C-66.74720987 163.375 -69.30377733 165.31735438 -71.375 166.375 Z M73.625 168.375 C73.26784912 169.00889648 72.91069824 169.64279297 72.54272461 170.29589844 C59.43301859 193.55416857 59.43301859 193.55416857 53.625 203.375 C57.31840696 206.31639884 61.32235009 208.66078782 65.375 211.0625 C66.07238281 211.47822266 66.76976562 211.89394531 67.48828125 212.32226562 C69.19932195 213.34185837 70.9119988 214.35870451 72.625 215.375 C75.34561624 212.10327514 77.63491729 208.84441787 79.71875 205.13671875 C80.27433594 204.15123047 80.82992187 203.16574219 81.40234375 202.15039062 C81.97082031 201.13138672 82.53929687 200.11238281 83.125 199.0625 C83.69347656 198.05509766 84.26195312 197.04769531 84.84765625 196.00976562 C87.92416361 190.53129835 90.87187975 185.02294523 93.625 179.375 C90.6710832 177.53447576 87.71117092 175.70382635 84.75 173.875 C83.90824219 173.35035156 83.06648438 172.82570312 82.19921875 172.28515625 C81.39355469 171.78886719 80.58789062 171.29257813 79.7578125 170.78125 C79.01418457 170.32041016 78.27055664 169.85957031 77.50439453 169.38476562 C75.68694576 168.2172352 75.68694576 168.2172352 73.625 168.375 Z M-78.62890625 170.78125 C-79.90991211 171.52568359 -79.90991211 171.52568359 -81.21679688 172.28515625 C-82.11462891 172.80980469 -83.01246094 173.33445313 -83.9375 173.875 C-84.83919922 174.39964844 -85.74089844 174.92429688 -86.66992188 175.46484375 C-88.90607587 176.76630904 -91.14103754 178.06977769 -93.375 179.375 C-92.91351563 180.17679688 -92.45203125 180.97859375 -91.9765625 181.8046875 C-87.48222284 189.63869457 -83.05944741 197.50855014 -78.70166016 205.41943359 C-78.29737793 206.1511377 -77.8930957 206.8828418 -77.4765625 207.63671875 C-77.11900879 208.28600342 -76.76145508 208.93528809 -76.39306641 209.60424805 C-75.45514937 211.23559391 -74.4188063 212.80929055 -73.375 214.375 C-70.42203576 213.75166027 -68.09953208 212.80598208 -65.484375 211.30859375 C-64.77539062 210.90576172 -64.06640625 210.50292969 -63.3359375 210.08789062 C-62.60632813 209.66701172 -61.87671875 209.24613281 -61.125 208.8125 C-60.37992188 208.38775391 -59.63484375 207.96300781 -58.8671875 207.52539062 C-57.03401039 206.47953958 -55.20417323 205.42783808 -53.375 204.375 C-54.79558995 200.59781588 -56.52090178 197.14831759 -58.4921875 193.62890625 C-59.09933594 192.54416016 -59.70648438 191.45941406 -60.33203125 190.34179688 C-60.96496094 189.21837891 -61.59789063 188.09496094 -62.25 186.9375 C-62.87519531 185.81794922 -63.50039062 184.69839844 -64.14453125 183.54492188 C-67.05506532 178.36072536 -69.95142369 173.24395586 -73.375 168.375 C-75.29797325 168.375 -77.01769741 169.84226736 -78.62890625 170.78125 Z M95.625 180.375 C95.19678955 181.12072266 94.7685791 181.86644531 94.32739258 182.63476562 C92.7164528 185.43851874 91.10415176 188.24148349 89.4909668 191.04394531 C88.79707289 192.25001815 88.10370025 193.45639105 87.41088867 194.66308594 C86.40685464 196.41162751 85.40093164 198.15906955 84.39453125 199.90625 C83.75209473 201.02257812 83.1096582 202.13890625 82.44775391 203.2890625 C80.89087008 205.92487974 79.26312806 208.47948387 77.57421875 211.03125 C76.60935547 212.68640625 76.60935547 212.68640625 75.625 214.375 C76.7807532 217.84225961 77.33652851 218.09290649 80.37109375 219.85546875 C81.50321289 220.51772461 81.50321289 220.51772461 82.65820312 221.19335938 C83.45162109 221.64517578 84.24503906 222.09699219 85.0625 222.5625 C86.24682617 223.25762695 86.24682617 223.25762695 87.45507812 223.96679688 C91.30296039 226.45654538 91.30296039 226.45654538 95.625 227.375 C96.24246094 226.24964844 96.85992187 225.12429687 97.49609375 223.96484375 C98.35108662 222.41380008 99.20659338 220.86303962 100.0625 219.3125 C100.50827393 218.50280762 100.95404785 217.69311523 101.41333008 216.85888672 C103.63818031 212.84575472 105.90097055 208.87514279 108.328125 204.98046875 C108.95569702 203.97028687 108.95569702 203.97028687 109.59594727 202.93969727 C110.39290526 201.66901068 111.200359 200.404833 112.01928711 199.14819336 C114.08861235 195.98091651 114.08861235 195.98091651 114.44042969 192.33032227 C113.40748155 189.8534116 112.44281455 189.30807805 110.09765625 188.05078125 C109.38802734 187.66212891 108.67839844 187.27347656 107.94726562 186.87304688 C107.20154297 186.48181641 106.45582031 186.09058594 105.6875 185.6875 C104.94564453 185.28466797 104.20378906 184.88183594 103.43945312 184.46679688 C100.85200855 183.06633957 98.25654538 181.69077269 95.625 180.375 Z M-136.375 181.375 C-138.73565809 199.59357337 -134.17352251 211.31637859 -124.24804688 226.50732422 C-122.96999554 228.4640488 -121.72236177 230.44089638 -120.50195312 232.43408203 C-119.90189453 233.41231934 -119.30183594 234.39055664 -118.68359375 235.3984375 C-117.88586548 236.71207275 -117.88586548 236.71207275 -117.07202148 238.05224609 C-114.22158902 241.95370121 -110.55733544 244.09246086 -106.375 246.375 C-105.54871094 246.8596875 -104.72242187 247.344375 -103.87109375 247.84375 C-99.8670845 250.41632827 -99.8670845 250.41632827 -95.375 251.375 C-93.13460398 233.46961278 -97.80106473 222.27446761 -107.5234375 207.33007812 C-109.375 204.375 -109.375 204.375 -111.0546875 201.18554688 C-114.99503529 193.71549645 -118.72714912 189.9094311 -126.25 186.125 C-127.11625 185.65449219 -127.9825 185.18398437 -128.875 184.69921875 C-132.44111465 182.45054607 -132.44111465 182.45054607 -136.375 181.375 Z M-101.38671875 183.5625 C-102.14404297 184.01367188 -102.90136719 184.46484375 -103.68164062 184.9296875 C-104.46732422 185.40664062 -105.25300781 185.88359375 -106.0625 186.375 C-107.25842773 187.09042969 -107.25842773 187.09042969 -108.47851562 187.8203125 C-110.44759831 188.99940393 -112.41282548 190.18446003 -114.375 191.375 C-112.95441005 195.15218412 -111.22909822 198.60168241 -109.2578125 202.12109375 C-108.65066406 203.20583984 -108.04351562 204.29058594 -107.41796875 205.40820312 C-106.46857422 207.09333008 -106.46857422 207.09333008 -105.5 208.8125 C-104.87480469 209.93205078 -104.24960938 211.05160156 -103.60546875 212.20507812 C-100.69032595 217.39748364 -97.7204159 222.45094599 -94.375 227.375 C-87.69087248 223.73933437 -81.01943293 220.08275764 -74.375 216.375 C-74.83648437 215.57320312 -75.29796875 214.77140625 -75.7734375 213.9453125 C-80.26777716 206.11130543 -84.69055259 198.24144986 -89.04833984 190.33056641 C-89.45262207 189.5988623 -89.8569043 188.8671582 -90.2734375 188.11328125 C-90.63099121 187.46399658 -90.98854492 186.81471191 -91.35693359 186.14575195 C-92.29485063 184.51440609 -93.3311937 182.94070945 -94.375 181.375 C-97.6751751 181.375 -98.6273015 181.90270015 -101.38671875 183.5625 Z M117.625 192.375 C112.82427729 198.29436057 109.43136499 205.06547908 105.98974609 211.83105469 C104.79531386 214.05752764 103.52994446 216.05899093 102.05078125 218.1015625 C94.79692504 228.507618 95.80126217 239.1171474 96.625 251.375 C98.83595812 250.29677933 101.04367306 249.21262596 103.25 248.125 C104.17619141 247.67447266 104.17619141 247.67447266 105.12109375 247.21484375 C106.03955078 246.76044922 106.03955078 246.76044922 106.9765625 246.296875 C107.53166504 246.02456055 108.08676758 245.75224609 108.65869141 245.47167969 C114.20302233 242.37941069 117.42391992 239.78674216 120.53515625 234.17578125 C120.86994492 233.58129684 121.20473358 232.98681244 121.54966736 232.37431335 C122.60910747 230.48587251 123.64848505 228.58724025 124.6875 226.6875 C125.38736682 225.4322142 126.08852909 224.17764975 126.79101562 222.92382812 C128.14676968 220.50196536 129.4838617 218.07107626 130.81030273 215.63305664 C131.89517899 213.6853002 133.02027751 211.7579564 134.22290039 209.88061523 C138.0317216 203.86487654 138.23960809 198.83535102 137.9375 191.8125 C137.90366211 190.29946289 137.90366211 190.29946289 137.86914062 188.75585938 C137.81080193 186.29396632 137.72902003 183.83531372 137.625 181.375 C130.77355719 181.375 122.4948425 188.0413435 117.625 192.375 Z M-20.375 187.375 C-20.375 194.965 -20.375 202.555 -20.375 210.375 C-6.845 210.375 6.685 210.375 20.625 210.375 C20.625 202.785 20.625 195.195 20.625 187.375 C7.095 187.375 -6.435 187.375 -20.375 187.375 Z M-27.19140625 190.5625 C-28.33706055 191.23925781 -28.33706055 191.23925781 -29.50585938 191.9296875 C-30.30830078 192.40664062 -31.11074219 192.88359375 -31.9375 193.375 C-32.74380859 193.85195312 -33.55011719 194.32890625 -34.38085938 194.8203125 C-36.38006317 196.00327333 -38.37804308 197.18825146 -40.375 198.375 C-36.80564779 201.36268 -33.15613152 203.80163848 -29.125 206.125 C-27.53945312 207.04539063 -27.53945312 207.04539063 -25.921875 207.984375 C-23.71235076 209.45487156 -23.71235076 209.45487156 -22.375 209.375 C-22.375 202.445 -22.375 195.515 -22.375 188.375 C-24.19031311 188.375 -25.66660377 189.65891335 -27.19140625 190.5625 Z M22.625 188.375 C22.625 195.305 22.625 202.235 22.625 209.375 C31.92680292 204.88506628 31.92680292 204.88506628 40.625 199.375 C37.84129142 196.10671993 34.19311335 194.25042089 30.5 192.1875 C29.85417969 191.81947266 29.20835937 191.45144531 28.54296875 191.07226562 C25.74704057 189.19671575 25.74704057 189.19671575 22.625 188.375 Z M-41.375 201.375 C-41.375 207.975 -41.375 214.575 -41.375 221.375 C-38.0028125 219.704375 -38.0028125 219.704375 -34.5625 218 C-33.85891357 217.65275879 -33.15532715 217.30551758 -32.43041992 216.94775391 C-29.61957603 215.54858905 -26.99130537 214.11920358 -24.375 212.375 C-24.375 211.715 -24.375 211.055 -24.375 210.375 C-26.80633054 208.73636603 -29.22271535 207.22578666 -31.75 205.75 C-32.44867188 205.32976562 -33.14734375 204.90953125 -33.8671875 204.4765625 C-37.37956551 202.18304174 -37.37956551 202.18304174 -41.375 201.375 Z M36.9296875 203.34375 C36.21425781 203.74980469 35.49882812 204.15585938 34.76171875 204.57421875 C34.01535156 205.00347656 33.26898438 205.43273437 32.5 205.875 C31.74589844 206.30425781 30.99179688 206.73351562 30.21484375 207.17578125 C28.34938952 208.23838176 26.48691125 209.30620357 24.625 210.375 C24.625 211.035 24.625 211.695 24.625 212.375 C27.24714328 213.88019387 29.87244208 215.37931319 32.5 216.875 C33.24636719 217.30425781 33.99273437 217.73351562 34.76171875 218.17578125 C35.47714844 218.58183594 36.19257813 218.98789063 36.9296875 219.40625 C37.58952637 219.78330078 38.24936523 220.16035156 38.92919922 220.54882812 C40.61027146 221.5209916 40.61027146 221.5209916 42.625 221.375 C42.625 214.775 42.625 208.175 42.625 201.375 C40.14828855 201.375 39.07366316 202.11862105 36.9296875 203.34375 Z M44.625 201.375 C44.625 208.635 44.625 215.895 44.625 223.375 C46.605 224.365 48.585 225.355 50.625 226.375 C50.93842645 222.96084258 51.19323243 219.54474594 51.4375 216.125 C51.52708984 215.15691406 51.61667969 214.18882812 51.70898438 213.19140625 C51.88516842 210.50228134 51.98646073 208.04651824 51.625 205.375 C49.46667917 202.60200402 49.46667917 202.60200402 46.625 201.375 C45.965 201.375 45.305 201.375 44.625 201.375 Z M-50.375 204.375 C-51.03559907 208.10892379 -50.84200499 211.78544725 -50.6875 215.5625 C-50.66494141 216.59826172 -50.64238281 217.63402344 -50.61914062 218.70117188 C-50.56016846 221.26056404 -50.47792567 223.81705951 -50.375 226.375 C-47.12516865 225.28715032 -47.12516865 225.28715032 -44.375 223.375 C-44.28799658 221.74027118 -44.26798937 220.10185945 -44.27734375 218.46484375 C-44.28056641 217.47548828 -44.28378906 216.48613281 -44.28710938 215.46679688 C-44.29548828 214.42587891 -44.30386719 213.38496094 -44.3125 212.3125 C-44.31701172 211.26771484 -44.32152344 210.22292969 -44.32617188 209.14648438 C-44.33800087 206.5559334 -44.35448311 203.96549441 -44.375 201.375 C-47.21037815 201.375 -48.32125751 202.53675354 -50.375 204.375 Z M-58.0703125 208.34375 C-58.78574219 208.74980469 -59.50117187 209.15585938 -60.23828125 209.57421875 C-60.98464844 210.00347656 -61.73101562 210.43273437 -62.5 210.875 C-63.25410156 211.30425781 -64.00820312 211.73351562 -64.78515625 212.17578125 C-66.65061048 213.23838176 -68.51308875 214.30620357 -70.375 215.375 C-70.375 216.035 -70.375 216.695 -70.375 217.375 C-68.77680771 218.60477883 -68.77680771 218.60477883 -66.69140625 219.7578125 C-65.92892578 220.20253906 -65.16644531 220.64726562 -64.38085938 221.10546875 C-63.57455078 221.56566406 -62.76824219 222.02585938 -61.9375 222.5 C-61.13505859 222.96792969 -60.33261719 223.43585938 -59.50585938 223.91796875 C-56.13450158 226.24103473 -56.13450158 226.24103473 -52.375 227.375 C-52.375 220.445 -52.375 213.515 -52.375 206.375 C-54.85171145 206.375 -55.92633684 207.11862105 -58.0703125 208.34375 Z M53.625 206.375 C53.625 212.975 53.625 219.575 53.625 226.375 C57.37210532 224.87615787 60.35966668 223.44859836 63.75 221.375 C64.59820312 220.859375 65.44640625 220.34375 66.3203125 219.8125 C68.1080896 218.69741191 69.87184645 217.54376903 71.625 216.375 C69.18963678 214.89221428 66.75187063 213.41366643 64.3125 211.9375 C63.62220703 211.51662109 62.93191406 211.09574219 62.22070312 210.66210938 C61.55361328 210.25927734 60.88652344 209.85644531 60.19921875 209.44140625 C59.58651123 209.06959229 58.97380371 208.69777832 58.3425293 208.31469727 C56.47218643 207.22521349 56.47218643 207.22521349 53.625 206.375 Z M-20.375 212.375 C-20.375 215.015 -20.375 217.655 -20.375 220.375 C-6.845 220.375 6.685 220.375 20.625 220.375 C20.625 217.735 20.625 215.095 20.625 212.375 C7.095 212.375 -6.435 212.375 -20.375 212.375 Z M22.625 213.375 C21.95337474 217.44589976 21.95337474 217.44589976 22.625 221.375 C25.40401438 224.03793383 28.6488301 225.64254423 32.0625 227.375 C32.96033203 227.86355469 33.85816406 228.35210937 34.78320312 228.85546875 C38.51350183 231.22448381 38.51350183 231.22448381 42.625 232.375 C43.24983393 228.31059867 43.24983393 228.31059867 42.625 224.375 C40.03919516 221.73274987 36.98657997 220.11852942 33.75 218.375 C32.90824219 217.88644531 32.06648437 217.39789063 31.19921875 216.89453125 C27.15303679 214.33111488 27.15303679 214.33111488 22.625 213.375 Z M-27.15625 215.52734375 C-27.91550781 215.97400391 -28.67476562 216.42066406 -29.45703125 216.88085938 C-30.25496094 217.35330078 -31.05289063 217.82574219 -31.875 218.3125 C-32.67292969 218.78107422 -33.47085938 219.24964844 -34.29296875 219.73242188 C-38.04445594 221.76979255 -38.04445594 221.76979255 -41.375 224.375 C-41.44648199 225.72743917 -41.45899454 227.08334367 -41.4375 228.4375 C-41.416875 229.736875 -41.39625 231.03625 -41.375 232.375 C-39.14544347 231.10484669 -36.91634574 229.83389952 -34.6875 228.5625 C-33.74874023 228.02786133 -33.74874023 228.02786133 -32.79101562 227.48242188 C-31.55753983 226.77850113 -30.32676246 226.06982861 -29.09887695 225.35620117 C-27.5691161 224.48548755 -26.00514502 223.67549958 -24.4375 222.875 C-22.19067924 221.58249235 -22.19067924 221.58249235 -21.88671875 219.33203125 C-21.94472656 218.62433594 -22.00273437 217.91664063 -22.0625 217.1875 C-22.165625 215.929375 -22.26875 214.67125 -22.375 213.375 C-24.17960055 213.375 -25.63649194 214.63237123 -27.15625 215.52734375 Z M-77.62890625 219.78125 C-78.90991211 220.52568359 -78.90991211 220.52568359 -80.21679688 221.28515625 C-81.11462891 221.80980469 -82.01246094 222.33445313 -82.9375 222.875 C-83.83919922 223.39964844 -84.74089844 223.92429688 -85.66992188 224.46484375 C-87.90607587 225.76630904 -90.14103754 227.06977769 -92.375 228.375 C-87.26073424 232.56335791 -81.88654898 236.06025985 -76.25 239.5 C-75.26773438 240.15226562 -74.28546875 240.80453125 -73.2734375 241.4765625 C-70.25124122 243.28988027 -67.82044419 244.60821645 -64.375 245.375 C-59.83202547 244.02544868 -55.75155336 241.75155336 -52.375 238.375 C-51.60158007 235.1989517 -51.50519724 232.53621166 -52.375 229.375 C-55.28234241 226.46613342 -58.68929381 224.70896434 -62.3125 222.8125 C-63.25802734 222.28076172 -64.20355469 221.74902344 -65.17773438 221.20117188 C-71.41528224 217.29099018 -71.41528224 217.29099018 -77.62890625 219.78125 Z M69.40625 219.74609375 C68.55675781 220.23787109 67.70726562 220.72964844 66.83203125 221.23632812 C65.49205078 222.0165332 65.49205078 222.0165332 64.125 222.8125 C63.23167969 223.32876953 62.33835938 223.84503906 61.41796875 224.37695312 C57.28874447 226.55789775 57.28874447 226.55789775 53.625 229.375 C53.55294489 231.06108966 53.54113932 232.75000659 53.5625 234.4375 C53.58333333 236.08333333 53.60416667 237.72916667 53.625 239.375 C57.45752305 242.17206026 61.00346077 244.20749354 65.625 245.375 C70.83225849 243.99084838 74.96161325 241.22121706 79.375 238.25 C80.5701404 237.49558383 81.76804854 236.74553359 82.96875 236 C85.88785161 234.17433717 88.76489377 232.29212323 91.625 230.375 C91.625 229.385 91.625 228.395 91.625 227.375 C90.05037973 226.02185295 90.05037973 226.02185295 87.94140625 224.89453125 C87.17892578 224.45302734 86.41644531 224.01152344 85.63085938 223.55664062 C84.82455078 223.10482422 84.01824219 222.65300781 83.1875 222.1875 C82.38505859 221.72408203 81.58261719 221.26066406 80.75585938 220.78320312 C75.11413138 217.22922642 75.11413138 217.22922642 69.40625 219.74609375 Z M-20.375 222.375 C-20.375 229.965 -20.375 237.555 -20.375 245.375 C-6.845 245.375 6.685 245.375 20.625 245.375 C20.625 237.785 20.625 230.195 20.625 222.375 C7.095 222.375 -6.435 222.375 -20.375 222.375 Z M-27.19140625 225.5625 C-28.33706055 226.23925781 -28.33706055 226.23925781 -29.50585938 226.9296875 C-30.30830078 227.40664062 -31.11074219 227.88359375 -31.9375 228.375 C-32.74380859 228.85195312 -33.55011719 229.32890625 -34.38085938 229.8203125 C-36.38006317 231.00327333 -38.37804308 232.18825146 -40.375 233.375 C-37.41515099 236.51767308 -33.98969557 238.47355894 -30.25 240.5625 C-29.28126953 241.11454102 -29.28126953 241.11454102 -28.29296875 241.67773438 C-25.49704057 243.55328425 -25.49704057 243.55328425 -22.375 244.375 C-22.375 237.445 -22.375 230.515 -22.375 223.375 C-24.19031311 223.375 -25.66660377 224.65891335 -27.19140625 225.5625 Z M22.625 223.375 C22.625 230.305 22.625 237.235 22.625 244.375 C26.90776226 242.6618951 30.57099933 240.68973175 34.4375 238.25 C35.3337207 237.69119141 35.3337207 237.69119141 36.24804688 237.12109375 C37.70926251 236.2092952 39.16744585 235.29264024 40.625 234.375 C37.05564779 231.38732 33.40613152 228.94836152 29.375 226.625 C28.31796875 226.01140625 27.2609375 225.3978125 26.171875 224.765625 C23.96235076 223.29512844 23.96235076 223.29512844 22.625 223.375 Z M44.625 225.375 C44.625 227.685 44.625 229.995 44.625 232.375 C46.275 231.385 47.925 230.395 49.625 229.375 C48.31299596 228.02067325 46.97868596 226.68766518 45.625 225.375 C45.295 225.375 44.965 225.375 44.625 225.375 Z M-49.375 229.375 C-46.9 230.365 -46.9 230.365 -44.375 231.375 C-44.375 229.725 -44.375 228.075 -44.375 226.375 C-46.34322886 226.375 -47.88028545 228.21780164 -49.375 229.375 Z M-93.375 231.375 C-94.42122221 238.59156625 -95.48764662 246.28498955 -93.375 253.375 C-88.644154 259.35547599 -80.67408972 262.17031002 -73.53125 264.171875 C-71.14148465 264.53962598 -71.14148465 264.53962598 -68.0625 263.3125 C-64.08388035 258.96377619 -64.92000956 254.99144371 -65.1640625 249.296875 C-65.23367187 248.33265625 -65.30328125 247.3684375 -65.375 246.375 C-65.87837891 246.09825439 -66.38175781 245.82150879 -66.90039062 245.53637695 C-69.22655786 244.25575899 -71.55078057 242.97164945 -73.875 241.6875 C-74.66648437 241.25244141 -75.45796875 240.81738281 -76.2734375 240.36914062 C-80.87801256 237.82152737 -85.36438646 235.17139102 -89.76367188 232.28198242 C-91.35730272 231.21149601 -91.35730272 231.21149601 -93.375 231.375 Z M-50.375 231.375 C-50.375 233.355 -50.375 235.335 -50.375 237.375 C-48.725 236.385 -47.075 235.395 -45.375 234.375 C-46.74985532 232.83333358 -46.74985532 232.83333358 -48.375 231.375 C-49.035 231.375 -49.695 231.375 -50.375 231.375 Z M45.625 234.375 C48.1 235.365 48.1 235.365 50.625 236.375 C50.955 234.725 51.285 233.075 51.625 231.375 C48.86276722 231.375 47.73218546 232.68925163 45.625 234.375 Z M81.3125 237.6875 C79.72405273 238.57985352 79.72405273 238.57985352 78.10351562 239.49023438 C77.08322266 240.06708984 76.06292969 240.64394531 75.01171875 241.23828125 C74.07545654 241.76719971 73.13919434 242.29611816 72.17456055 242.84106445 C69.8406639 244.24524645 67.67354967 245.57902736 65.625 247.375 C64.74331496 251.76624952 64.88170068 255.96588357 65.625 260.375 C68.03423894 263.4826835 68.03423894 263.4826835 71.625 264.375 C79.14091617 263.81786087 86.5064951 260.32709126 92.15136719 255.38232422 C96.80996835 249.03656233 94.62548583 238.70740672 93.625 231.375 C89.82704816 231.375 84.55307312 235.85163046 81.3125 237.6875 Z M-45.19921875 236.15234375 C-45.81410156 236.53519531 -46.42898437 236.91804687 -47.0625 237.3125 C-48.155625 237.993125 -49.24875 238.67375 -50.375 239.375 C-51.47639565 244.37087306 -51.80567805 248.42423638 -50.375 253.375 C-46.34969052 257.55320271 -40.74822161 259.89976491 -35.56445312 262.33496094 C-32.56635243 263.75912563 -29.70472176 265.37217885 -26.8125 267 C-25.348125 267.78375 -23.88375 268.5675 -22.375 269.375 C-22.375 261.785 -22.375 254.195 -22.375 246.375 C-25.283125 244.745625 -28.19125 243.11625 -31.1875 241.4375 C-32.09991455 240.92453369 -33.0123291 240.41156738 -33.95239258 239.88305664 C-34.67579834 239.47949951 -35.3992041 239.07594238 -36.14453125 238.66015625 C-36.88292236 238.24644775 -37.62131348 237.83273926 -38.38208008 237.40649414 C-41.68241616 235.55447384 -41.68241616 235.55447384 -45.19921875 236.15234375 Z M38.30859375 237.74609375 C37.03918945 238.48375977 37.03918945 238.48375977 35.74414062 239.23632812 C34.41672852 240.0165332 34.41672852 240.0165332 33.0625 240.8125 C32.17369141 241.32876953 31.28488281 241.84503906 30.36914062 242.37695312 C26.26682147 244.56213062 26.26682147 244.56213062 22.625 247.375 C22.53799658 249.00972882 22.51798937 250.64814055 22.52734375 252.28515625 C22.53056641 253.27451172 22.53378906 254.26386719 22.53710938 255.28320312 C22.54548828 256.32412109 22.55386719 257.36503906 22.5625 258.4375 C22.56701172 259.48228516 22.57152344 260.52707031 22.57617188 261.60351562 C22.58800087 264.1940666 22.60448311 266.78450559 22.625 269.375 C29.79834792 266.03287199 36.59673309 262.30044193 43.3125 258.125 C44.01955078 257.68881348 44.72660156 257.25262695 45.45507812 256.80322266 C49.1277115 254.66889294 49.1277115 254.66889294 51.625 251.375 C52.15691648 247.62136212 52.3037969 244.1137702 51.625 240.375 C49.65427863 237.95029046 47.50656392 236.55500694 44.625 235.375 C41.94734313 235.375 40.61958565 236.39811471 38.30859375 237.74609375 Z M-61.44140625 245.2421875 C-64.04169136 248.11038077 -63.96910742 249.93001792 -63.9375 253.75 C-63.751875 255.60625 -63.56625 257.4625 -63.375 259.375 C-59.745 257.395 -56.115 255.415 -52.375 253.375 C-52.375 249.415 -52.375 245.455 -52.375 241.375 C-55.93560472 241.375 -58.54017328 243.32041078 -61.44140625 245.2421875 Z M53.625 241.375 C53.02065558 245.5248317 52.73408276 249.25581793 53.625 253.375 C56.75357376 256.37184434 59.60032524 257.56389636 63.625 259.375 C63.625 255.085 63.625 250.795 63.625 246.375 C60.325 244.725 57.025 243.075 53.625 241.375 Z M-20.375 247.375 C-20.375 254.965 -20.375 262.555 -20.375 270.375 C-6.845 270.375 6.685 270.375 20.625 270.375 C20.625 262.785 20.625 255.195 20.625 247.375 C7.095 247.375 -6.435 247.375 -20.375 247.375 Z M-63.375 261.375 C-64.50464813 263.93037339 -64.61456221 265.44331753 -64.28125 268.20703125 C-62.43611222 272.62104621 -58.43357297 274.24351923 -54.375 276.375 C-53.42753906 276.95894531 -52.48007813 277.54289062 -51.50390625 278.14453125 C-47.57734376 280.55010381 -47.57734376 280.55010381 -43.375 282.375 C-40.87815226 281.85354739 -40.87815226 281.85354739 -38.375 280.375 C-37.21484375 279.75625 -36.0546875 279.1375 -34.859375 278.5 C-33.61263904 277.79509444 -32.36787642 277.08668857 -31.125 276.375 C-30.16980469 275.84132813 -30.16980469 275.84132813 -29.1953125 275.296875 C-25.69012809 273.44834326 -25.69012809 273.44834326 -23.375 270.375 C-23.9834375 270.04628906 -24.591875 269.71757812 -25.21875 269.37890625 C-29.69148485 266.95178984 -34.15239545 264.51208121 -38.5625 261.97265625 C-39.27599609 261.56394287 -39.98949219 261.15522949 -40.72460938 260.73413086 C-42.14561606 259.91860079 -43.56365915 259.09788252 -44.97851562 258.27172852 C-52.41898187 254.01390528 -57.08223044 255.80042697 -63.375 261.375 Z M44.64453125 258.65625 C44.07167892 258.98919067 43.4988266 259.32213135 42.90861511 259.66516113 C41.08130243 260.72906145 39.25940865 261.80187684 37.4375 262.875 C36.19891421 263.59824997 34.95998576 264.32091347 33.72070312 265.04296875 C30.68479778 266.81352673 27.6536877 268.59211735 24.625 270.375 C24.625 271.035 24.625 271.695 24.625 272.375 C27.50390304 274.11315502 30.40519049 275.80986016 33.3125 277.5 C34.12912109 277.99371094 34.94574219 278.48742187 35.78710938 278.99609375 C40.21592374 281.72915072 40.21592374 281.72915072 45.1875 281.96875 C45.991875 281.4428125 46.79625 280.916875 47.625 280.375 C48.95151641 279.64830721 50.28127594 278.92751971 51.61328125 278.2109375 C53.0564805 277.39378359 54.49785064 276.57339195 55.9375 275.75 C56.67806641 275.32976562 57.41863281 274.90953125 58.18164062 274.4765625 C59.99769011 273.44551505 61.81156533 272.41063954 63.625 271.375 C64.24872785 267.86826341 64.48921822 264.85257273 63.625 261.375 C57.15992625 255.27901886 52.20042643 254.23328697 44.64453125 258.65625 Z M-69 264.875 C-69.45375 265.37 -69.9075 265.865 -70.375 266.375 C-67.9 267.86 -67.9 267.86 -65.375 269.375 C-65.375 267.395 -65.375 265.415 -65.375 263.375 C-67.49864481 263.14890663 -67.49864481 263.14890663 -69 264.875 Z M65.625 263.375 C65.625 265.355 65.625 267.335 65.625 269.375 C67.605 268.385 69.585 267.395 71.625 266.375 C68.95252366 264.03212582 68.95252366 264.03212582 65.625 263.375 Z M-40.375 283.375 C-27.04807806 294.27745377 -17.16307344 296.8287118 -0.1875 296.5625 C0.76500641 296.56024414 1.71751282 296.55798828 2.69888306 296.55566406 C17.55771275 296.47042967 29.25588896 294.71971551 40.625 284.375 C32.60276783 275.82459454 23.87578303 271.74347647 12.30078125 271.20703125 C9.4691132 271.14496279 6.64588648 271.13517043 3.8137207 271.16723633 C0.9542931 271.18738169 -1.89017959 271.10638678 -4.74804688 271.01757812 C-19.10987751 270.86748684 -28.75922674 275.0945586 -40.375 283.375 Z " fill="#FEFEFE" transform="translate(174.375,25.625)"/>
<path d="M0 0 C2.31 0 4.62 0 7 0 C7 2.31 7 4.62 7 7 C4.69 7 2.38 7 0 7 C0 4.69 0 2.38 0 0 Z " fill="#FEFEFE" transform="translate(171,330)"/>
<path d="M0 0 C2.31 0 4.62 0 7 0 C7 2.31 7 4.62 7 7 C4.69 7 2.38 7 0 7 C0 4.69 0 2.38 0 0 Z " fill="#FEFEFE" transform="translate(171,13)"/>
<path d="M0 0 C1.1875 2.5625 1.1875 2.5625 2 5 C0.68 5.33 -0.64 5.66 -2 6 C-2 6.66 -2 7.32 -2 8 C-2.99 7.67 -3.98 7.34 -5 7 C-6.1875 3.9375 -6.1875 3.9375 -7 1 C-3.375 -1.125 -3.375 -1.125 0 0 Z " fill="#FEFEFE" transform="translate(315,93)"/>
<path d="M0 0 C0.66 2.31 1.32 4.62 2 7 C0.02 7.66 -1.96 8.32 -4 9 C-7 5.25 -7 5.25 -7 3 C-2.61538462 0 -2.61538462 0 0 0 Z " fill="#FEFEFE" transform="translate(40,250)"/>
<path d="M0 0 C4.75 1.875 4.75 1.875 7 3 C7 3.66 7 4.32 7 5 C6.34 5 5.68 5 5 5 C4.67 6.32 4.34 7.64 4 9 C1.525 8.01 1.525 8.01 -1 7 C-1 3 -1 3 0 0 Z " fill="#FEFEFE" transform="translate(310,250)"/>
<path d="M0 0 C1.98 0.66 3.96 1.32 6 2 C5.34 3.65 4.68 5.3 4 7 C0 7 0 7 -3 6 C-3 5.01 -3 4.02 -3 3 C-2.34 3 -1.68 3 -1 3 C-0.67 2.01 -0.34 1.02 0 0 Z " fill="#FEFEFE" transform="translate(36,92)"/>
</svg>
